SplineFontDB: 3.0
FontName: StickNoBills-Bold
FullName: Stick No Bills
FamilyName: Stick No Bills
OS2FamilyName: "Stick No Bills Regular"
OS2StyleName: "regular"
Weight: Bold
Copyright: Remove All VKern Pairs
UComments: "2015-2-15: Created with FontForge (http://fontforge.org) The  Free Font Editor"
Version: 1.0
ItalicAngle: 0
UnderlinePosition: -102
UnderlineWidth: 51
Ascent: 819
Descent: 205
InvalidEm: 0
UFOAscent: 819
UFODescent: -205
LayerCount: 2
Layer: 0 0 "Back" 1
Layer: 1 0 "Fore" 0
FSType: 0
OS2Version: 0
OS2_WeightWidthSlopeOnly: 0
OS2_UseTypoMetrics: 0
CreationTime: 1445925824
ModificationTime: 1446055224
PfmFamily: 16
TTFWeight: 400
TTFWidth: 5
LineGap: 94
VLineGap: 0
OS2TypoAscent: 819
OS2TypoAOffset: 0
OS2TypoDescent: -205
OS2TypoDOffset: 0
OS2TypoLinegap: 94
OS2WinAscent: 918
OS2WinAOffset: 0
OS2WinDescent: 205
OS2WinDOffset: 0
HheadAscent: 918
HheadAOffset: 0
HheadDescent: -205
HheadDOffset: 0
OS2CapHeight: 0
OS2XHeight: 0
OS2Vendor: 'PfEd'
OS2UnicodeRanges: 00000002.00000000.00000000.00000000
Lookup: 258 0 0 "kernHorizontalKerninglookup0" { "kernHorizontalKerninglookup0 subtable"  } ['kern' ('latn' <'dflt' > 'hani' <'dflt' > 'DFLT' <'dflt' > ) ]
DEI: 91125
KernClass2: 6 7 "kernHorizontalKerninglookup0 subtable"
 1 A
 7 F P T Y
 1 L
 3 V W
 9 f r v w y
 1 A
 7 T V W Y
 17 a c d e g o q s u
 15 colon semicolon
 12 comma period
 5 t v w
 0 {} 0 {} 0 {} 0 {} 0 {} 0 {} 0 {} 0 {} 0 {} -70 {} -23 {} 45 {} 61 {} -68 {} 0 {} -100 {} 16 {} -30 {} -63 {} -80 {} -23 {} 0 {} 0 {} -82 {} 84 {} 62 {} 0 {} -77 {} 0 {} -130 {} 0 {} -55 {} -75 {} -109 {} 0 {} 0 {} 0 {} 0 {} 0 {} 0 {} -41 {} 0 {}

StartChar: A
Encoding: 65 65 0
GlifName: A_
Width: 528
VWidth: 0
GlyphClass: 2
Flags: W
LayerCount: 2
Back
Fore
SplineSet
32 0 m 257
 161 582 l 257
 176 582 l 257
 236 302 l 257
 170 0 l 257
 32 0 l 257
245 85 m 257
 275 223 l 257
 311 223 l 257
 205 700 l 257
 344 700 l 257
 509 0 l 257
 369 0 l 257
 349 85 l 257
 245 85 l 257
EndSplineSet
EndChar

StartChar: AE
Encoding: 256 198 1
GlifName: A_E_
Width: 727
VWidth: 0
GlyphClass: 2
Flags: W
LayerCount: 2
Back
Fore
SplineSet
26 0 m 257
 206 700 l 257
 701 700 l 257
 701 560 l 257
 478 560 l 257
 478 418 l 257
 607 418 l 257
 607 277 l 257
 478 277 l 257
 478 141 l 257
 701 141 l 257
 701 0 l 257
 337 0 l 257
 337 148 l 257
 272 148 l 257
 301 268 l 257
 337 268 l 257
 337 560 l 257
 320 560 l 257
 182 0 l 257
 26 0 l 257
EndSplineSet
EndChar

StartChar: Aring
Encoding: 260 197 9
GlifName: A_ring
Width: 516
VWidth: 0
GlyphClass: 2
Flags: W
LayerCount: 2
Back
Fore
SplineSet
26 0 m 257
 155 582 l 257
 170 582 l 257
 230 302 l 257
 164 0 l 257
 26 0 l 257
239 85 m 257
 269 223 l 257
 305 223 l 257
 200 698 l 257
 183 715 173 739 173 765 c 256
 173 818 216 861 269 861 c 256
 322 861 365 818 365 765 c 256
 365 738.676 355.63 715.63 339 699 c 257
 490 0 l 257
 353 0 l 257
 333 85 l 257
 239 85 l 257
237 765 m 256
 237 747 251 733 269 733 c 256
 287 733 301 747 301 765 c 256
 301 783 287 797 269 797 c 256
 251 797 237 783 237 765 c 256
EndSplineSet
EndChar

StartChar: B
Encoding: 66 66 11
GlifName: B_
Width: 488
VWidth: 0
GlyphClass: 2
Flags: W
LayerCount: 2
Back
Fore
SplineSet
30 0 m 257
 30 700 l 257
 170 700 l 257
 170 0 l 257
 30 0 l 257
225 0 m 257
 225 123 l 257
 230 123 l 258
 288.039 123 316.508 164.698 316.508 206.297 c 256
 316.508 247.697 288.31 289 233 289 c 258
 225 289 l 257
 225 411 l 257
 233 411 l 258
 288.31 411 316.508 452.303 316.508 493.703 c 256
 316.508 535.302 288.039 577 230 577 c 258
 225 577 l 257
 225 700 l 257
 249 700 l 258
 394.868 700 457.426 600.418 457.426 504.029 c 256
 457.426 443.702 432.921 382.627 389 350 c 257
 432.921 317.373 457.426 256.298 457.426 195.971 c 256
 457.426 99.582 394.868 0 249 0 c 258
 225 0 l 257
EndSplineSet
EndChar

StartChar: C
Encoding: 67 67 12
GlifName: C_
Width: 494
VWidth: 0
GlyphClass: 2
Flags: W
LayerCount: 2
Back
Fore
SplineSet
38 181 m 257
 38 518 l 257
 38 578 92 705 235 705 c 257
 235 564 l 257
 189 563 179 523 179 518 c 257
 179 181 l 257
 179 176 189 136 235 136 c 257
 235 -5 l 257
 92 -5 38 121 38 181 c 257
289 -5 m 257
 289 136 l 257
 289 136 321 143 331 166 c 256
 336 178 336 189 336 203 c 258
 336 215 l 257
 474 182 l 257
 474 76 381 -5 289 -5 c 257
289 564 m 257
 289 705 l 257
 381 705 474 612 474 516 c 257
 336 480 l 257
 336 495 l 258
 336 509 336 520 331 532 c 256
 321 555 289 564 289 564 c 257
EndSplineSet
EndChar

StartChar: D
Encoding: 68 68 16
GlifName: D_
Width: 472
VWidth: 0
GlyphClass: 2
Flags: W
LayerCount: 2
Back
Fore
SplineSet
42 0 m 257
 42 700 l 257
 183 700 l 257
 183 0 l 257
 42 0 l 257
237 0 m 257
 237 141 l 257
 243 141 292 149 293 197 c 258
 293 503 l 257
 293 508 285 558 237 559 c 257
 237 700 l 257
 380 700 434 566 434 503 c 257
 434 197 l 257
 434 50 297 0 237 0 c 257
EndSplineSet
EndChar

StartChar: E
Encoding: 69 69 19
GlifName: E_
Width: 444
VWidth: 0
GlyphClass: 2
Flags: W
LayerCount: 2
Back
Fore
SplineSet
42 0 m 257
 42 700 l 257
 406 700 l 257
 406 560 l 257
 183 560 l 257
 183 418 l 257
 312 418 l 257
 312 277 l 257
 183 277 l 257
 183 141 l 257
 406 141 l 257
 406 0 l 257
 42 0 l 257
EndSplineSet
EndChar

StartChar: Eth
Encoding: 270 208 28
GlifName: E_th
Width: 501
VWidth: 0
GlyphClass: 2
Flags: W
LayerCount: 2
Back
Fore
SplineSet
26 292 m 257
 26 420 l 257
 83 420 l 257
 83 700 l 257
 224 700 l 257
 224 420 l 257
 280 420 l 257
 280 292 l 257
 224 292 l 257
 224 0 l 257
 83 0 l 257
 83 292 l 257
 26 292 l 257
278 0 m 257
 278 141 l 257
 284 141 333 149 334 197 c 258
 334 503 l 258
 334 508 326 558 278 559 c 257
 278 700 l 257
 421 700 475 566 475 503 c 258
 475 197 l 258
 475 50 338 0 278 0 c 257
EndSplineSet
EndChar

StartChar: Euro
Encoding: 271 8364 29
GlifName: E_U_R_O_
Width: 567
VWidth: 0
GlyphClass: 2
Flags: W
LayerCount: 2
Back
Fore
SplineSet
50 258 m 257
 50 317 l 257
 99 317 l 257
 99 377 l 257
 50 377 l 257
 50 436 l 257
 99 436 l 257
 99 496 l 258
 99 604.699 182.176 694.858 278 698 c 257
 278 558 l 257
 250 558 236 539.429 236 508 c 258
 236 436 l 257
 408 436 l 257
 408 376 l 257
 236 376 l 257
 236 317 l 257
 408 317 l 257
 408 258 l 257
 236 258 l 257
 236 202 l 258
 236 155 254 141 278 141 c 257
 278 2 l 257
 177.199 9.46674 104.605 89.5212 99 182 c 257
 99 258 l 257
 50 258 l 257
338 2 m 257
 338 142 l 257
 366.667 143 381 165 381 199 c 258
 381 237 l 257
 517 186 l 257
 517 102.788 426.527 3.80668 338 2 c 257
338 558 m 257
 338 698 l 257
 446.583 696.192 517 617.399 517 514 c 257
 380 463 l 257
 381 512 l 258
 381 539.439 366 558 338 558 c 257
EndSplineSet
EndChar

StartChar: F
Encoding: 70 70 30
GlifName: F_
Width: 432
VWidth: 0
GlyphClass: 2
Flags: W
LayerCount: 2
Back
Fore
SplineSet
42 1 m 257
 42 700 l 257
 406 700 l 257
 406 560 l 257
 183 560 l 257
 183 418 l 257
 312 418 l 257
 312 277 l 257
 183 277 l 257
 183 1 l 257
 42 1 l 257
EndSplineSet
EndChar

StartChar: G
Encoding: 71 71 31
GlifName: G_
Width: 507
VWidth: 0
GlyphClass: 2
Flags: W
LayerCount: 2
Back
Fore
SplineSet
38 192 m 257
 38 524 l 257
 46 589 102 705 234 705 c 257
 234 564 l 257
 188 563 178 523 179 508 c 257
 179 192 l 258
 180 146 229 136 234 136 c 257
 234 -5 l 257
 174 -5 38 48 38 192 c 257
288 -5 m 257
 288 136 l 257
 294 136 331 155 331 190 c 258
 331 223 l 257
 288 223 l 257
 288 353 l 257
 473 353 l 257
 473 176 l 258
 473 95 370 -4 288 -5 c 257
288 564 m 257
 288 705 l 257
 381 705 473 612 473 516 c 257
 335 465 l 257
 335 504 l 258
 335 544.805 310.365 563.319 288 564 c 257
EndSplineSet
EndChar

StartChar: H
Encoding: 72 72 33
GlifName: H_
Width: 495
VWidth: 0
GlyphClass: 2
Flags: W
LayerCount: 2
Back
Fore
SplineSet
40 0 m 257
 40 700 l 257
 181 700 l 257
 181 421 l 257
 220 421 l 257
 220 283 l 257
 181 283 l 257
 181 0 l 257
 40 0 l 257
275 283 m 257
 275 421 l 257
 314 421 l 257
 314 700 l 257
 455 700 l 257
 455 0 l 257
 314 0 l 257
 314 283 l 257
 275 283 l 257
EndSplineSet
EndChar

StartChar: I
Encoding: 73 73 34
GlifName: I_
Width: 225
VWidth: 0
GlyphClass: 2
Flags: W
LayerCount: 2
Back
Fore
SplineSet
42 0 m 257
 42 700 l 257
 183 700 l 257
 183 0 l 257
 42 0 l 257
EndSplineSet
EndChar

StartChar: J
Encoding: 74 74 42
GlifName: J_
Width: 484
VWidth: 0
GlyphClass: 2
Flags: W
LayerCount: 2
Back
Fore
SplineSet
15 193 m 257
 15 242 l 257
 156 242 l 257
 156 193 l 258
 157 147 197 137 202 137 c 257
 202 -5 l 257
 142 -5 15 54 15 193 c 257
256 -5 m 257
 256 137 l 257
 261 137 311 147 312 193 c 258
 312 700 l 257
 452 700 l 257
 452 193 l 257
 452 49 316 -5 256 -5 c 257
EndSplineSet
EndChar

StartChar: K
Encoding: 75 75 43
GlifName: K_
Width: 488
VWidth: 0
GlyphClass: 2
Flags: W
LayerCount: 2
Back
Fore
SplineSet
42 0 m 257
 42 700 l 257
 183 700 l 257
 183 0 l 257
 42 0 l 257
223 341 m 257
 330 700 l 257
 469 700 l 257
 363 341 l 257
 473 0 l 257
 335 0 l 257
 223 341 l 257
EndSplineSet
EndChar

StartChar: L
Encoding: 76 76 44
GlifName: L_
Width: 433
VWidth: 0
GlyphClass: 2
Flags: W
LayerCount: 2
Back
Fore
SplineSet
42 0 m 257
 42 700 l 257
 183 700 l 257
 183 140 l 257
 418 140 l 257
 418 0 l 257
 42 0 l 257
EndSplineSet
EndChar

StartChar: Lslash
Encoding: 276 321 47
GlifName: L_slash
Width: 530
VWidth: 0
GlyphClass: 2
Flags: W
LayerCount: 2
Back
Fore
SplineSet
26 302 m 257
 129 382 l 257
 129 700 l 257
 270 700 l 257
 270 492 l 257
 348 553 l 257
 420 460 l 257
 270 343 l 257
 270 139 l 257
 505 139 l 257
 505 0 l 257
 129 0 l 257
 129 233 l 257
 98 209 l 257
 26 302 l 257
EndSplineSet
EndChar

StartChar: M
Encoding: 77 77 48
GlifName: M_
Width: 696
VWidth: 0
GlyphClass: 2
Flags: W
LayerCount: 2
Back
Fore
SplineSet
42 0 m 257
 42 444 l 257
 51 444 l 257
 183 127 l 257
 183 0 l 257
 42 0 l 257
42 608 m 257
 42 700 l 257
 152 700 l 257
 343 237 l 257
 449 476 l 257
 459 476 l 257
 459 151 l 257
 392 0 l 257
 295 0 l 257
 42 608 l 257
513 0 m 257
 513 700 l 257
 654 700 l 257
 654 0 l 257
 513 0 l 257
EndSplineSet
EndChar

StartChar: N
Encoding: 78 78 49
GlifName: N_
Width: 529
VWidth: 0
GlyphClass: 2
Flags: W
LayerCount: 2
Back
Fore
SplineSet
42 0 m 257
 42 492 l 257
 50 492 l 257
 183 278 l 257
 183 0 l 257
 42 0 l 257
42 608 m 257
 42 700 l 257
 157 700 l 257
 487 168 l 257
 487 0 l 257
 420 0 l 257
 42 608 l 257
346 498 m 257
 346 700 l 257
 487 700 l 257
 487 284 l 257
 479 284 l 257
 346 498 l 257
EndSplineSet
EndChar

StartChar: O
Encoding: 79 79 53
GlifName: O_
Width: 524
VWidth: 0
GlyphClass: 2
Flags: W
LayerCount: 2
Back
Fore
SplineSet
38 195 m 258
 38 524 l 258
 38 584 103 705 235 705 c 257
 235 564 l 257
 189 563 179 513 179 508 c 258
 179 195 l 258
 179 149 229 137 234 137 c 257
 234 -5 l 257
 174 -5 38 51 38 195 c 258
289 -5 m 257
 289 137 l 257
 294 137 344 149 345 195 c 258
 345 508 l 258
 345 513 335 563 289 564 c 257
 289 705 l 257
 420 705 486 583 486 524 c 258
 486 195 l 258
 486 51 349 -5 289 -5 c 257
EndSplineSet
EndChar

StartChar: OE
Encoding: 279 338 54
GlifName: O_E_
Width: 724
VWidth: 0
GlyphClass: 2
Flags: W
LayerCount: 2
Back
Fore
SplineSet
26 200 m 258
 26 519 l 258
 26 579 91 700 223 700 c 257
 223 559 l 257
 177 558 167 508 167 503 c 258
 167 200 l 258
 167 154 217 142 222 142 c 257
 222 0 l 257
 162 0 26 56 26 200 c 258
277 0 m 257
 277 142 l 257
 334 142 l 257
 334 559 l 257
 277 559 l 257
 277 700 l 257
 698 700 l 257
 698 560 l 257
 475 560 l 257
 475 418 l 257
 604 418 l 257
 604 277 l 257
 475 277 l 257
 475 141 l 257
 698 141 l 257
 698 0 l 257
 277 0 l 257
EndSplineSet
EndChar

StartChar: Oslash
Encoding: 282 216 61
GlifName: O_slash
Width: 662
VWidth: 0
GlyphClass: 2
Flags: W
LayerCount: 2
Back
Fore
SplineSet
0 131 m 257
 108 228 l 257
 108 524 l 258
 108 584 173 705 305 705 c 257
 305 564 l 257
 259 562.893 249 519.714 249 502 c 258
 249 356 l 257
 415 505 l 257
 415 522.577 406.629 562.965 359 564 c 257
 359 705 l 257
 441 705 497 658 528 607 c 257
 584 658 l 257
 662 570 l 257
 556 474 l 257
 556 195 l 258
 556 51 419 -5 359 -5 c 257
 359 137 l 257
 364 137 414 149 415 195 c 258
 415 347 l 257
 249 197 l 257
 249 149.829 297.577 137 304 137 c 257
 304 -5 l 257
 261 -5 178 24 135 94 c 257
 78 43 l 257
 0 131 l 257
EndSplineSet
EndChar

StartChar: P
Encoding: 80 80 63
GlifName: P_
Width: 479
VWidth: 0
GlyphClass: 2
Flags: W
LayerCount: 2
Back
Fore
SplineSet
42 0 m 257
 42 700 l 257
 183 700 l 257
 183 0 l 257
 42 0 l 257
237 318 m 257
 237 457 l 257
 270 457 l 258
 277 457 321 458 321 508 c 256
 321 559 279 561 270 561 c 258
 237 561 l 257
 237 700 l 257
 418 700 464 626 464 512 c 256
 464 369 394 318 237 318 c 257
EndSplineSet
EndChar

StartChar: Q
Encoding: 81 81 64
GlifName: Q_
Width: 526
VWidth: 0
GlyphClass: 2
Flags: W
LayerCount: 2
Back
Fore
SplineSet
38 195 m 258
 38 524 l 258
 38 584 103 705 235 705 c 257
 235 564 l 257
 189 563 179 513 179 508 c 258
 179 195 l 258
 179 149 229 137 234 137 c 257
 234 -5 l 257
 174 -5 38 51 38 195 c 258
289 -5 m 257
 289 137 l 257
 294 137 344 149 345 195 c 258
 345 508 l 258
 345 513 335 563 289 564 c 257
 289 705 l 257
 420 705 486 583 486 524 c 258
 486 195 l 258
 486 127 456 79 417 47 c 257
 472 -32 l 257
 360 -107 l 257
 289 -5 l 257
EndSplineSet
EndChar

StartChar: R
Encoding: 82 82 65
GlifName: R_
Width: 505
VWidth: 0
GlyphClass: 2
Flags: W
LayerCount: 2
Back
Fore
SplineSet
42 0 m 257
 42 700 l 257
 183 700 l 257
 183 0 l 257
 42 0 l 257
237 286 m 257
 237 411 l 257
 250 411 l 258
 310 411 336 450 336 490 c 256
 336 538 299 567 250 567 c 258
 237 567 l 257
 237 700 l 257
 387 700 463 610 463 490 c 256
 463 422 443 381 400 352 c 257
 441 326 462 266 466 217 c 258
 483 0 l 257
 353 0 l 257
 338 178 l 258
 331 257 308 286 237 286 c 257
EndSplineSet
EndChar

StartChar: S
Encoding: 83 83 68
GlifName: S_
Width: 481
VWidth: 0
GlyphClass: 2
Flags: W
LayerCount: 2
Back
Fore
SplineSet
20 158 m 257
 147 203 l 257
 147 147 203 127 203 127 c 257
 203 -3 l 257
 94 -3 20 103 20 158 c 257
28 508 m 256
 28 647 152 699 203 700 c 257
 203 568 l 257
 182 562 162 537 162 513 c 256
 162 446 266 434 333 394 c 256
 394 358 461 311 461 209 c 256
 461 96 366 -3 258 -3 c 257
 258 127 l 257
 282 130 320 150 320 203 c 256
 320 278 211 294 151 323 c 256
 80 357 28 403 28 508 c 256
258 568 m 257
 258 700 l 257
 364 700 433 602 433 553 c 257
 303 510 l 257
 303 557 258 568 258 568 c 257
EndSplineSet
EndChar

StartChar: T
Encoding: 84 84 71
GlifName: T_
Width: 463
VWidth: 0
GlyphClass: 2
Flags: W
LayerCount: 2
Back
Fore
SplineSet
15 562 m 257
 15 700 l 257
 448 700 l 257
 448 562 l 257
 302 562 l 257
 302 0 l 257
 161 0 l 257
 161 562 l 257
 15 562 l 257
EndSplineSet
EndChar

StartChar: Thorn
Encoding: 289 222 73
GlifName: T_horn
Width: 474
VWidth: 0
GlyphClass: 2
Flags: W
LayerCount: 2
Back
Fore
SplineSet
26 0 m 257
 26 700 l 257
 167 700 l 257
 167 0 l 257
 26 0 l 257
221 208 m 257
 221 347 l 257
 254 347 l 258
 261 347 305 348 305 398 c 256
 305 449 263 451 254 451 c 258
 221 451 l 257
 221 590 l 257
 402 590 448 516 448 402 c 256
 448 259 378 208 221 208 c 257
EndSplineSet
EndChar

StartChar: U
Encoding: 85 85 74
GlifName: U_
Width: 512
VWidth: 0
GlyphClass: 2
Flags: W
LayerCount: 2
Back
Fore
SplineSet
32 193 m 258
 32 700 l 257
 173 700 l 257
 173 193 l 257
 174 147 224 137 229 137 c 257
 229 -5 l 257
 169 -5 32 49 32 193 c 258
283 -5 m 257
 283 137 l 257
 288 137 338 147 339 193 c 257
 339 700 l 257
 479 700 l 257
 479 193 l 258
 479 48 344 -5 283 -5 c 257
EndSplineSet
EndChar

StartChar: V
Encoding: 86 86 83
GlifName: V_
Width: 472
VWidth: 0
GlyphClass: 2
Flags: W
LayerCount: 2
Back
Fore
SplineSet
8 700 m 257
 152 700 l 257
 311 158 l 257
 258 0 l 257
 211 0 l 257
 8 700 l 257
265 514 m 257
 320 700 l 257
 464 700 l 257
 424 569 383 430 341 290 c 257
 331 290 l 257
 265 514 l 257
EndSplineSet
EndChar

StartChar: W
Encoding: 87 87 84
GlifName: W_
Width: 792
VWidth: 0
GlyphClass: 2
Flags: W
LayerCount: 2
Back
Fore
SplineSet
10 700 m 257
 154 700 l 257
 313 158 l 257
 260 0 l 257
 213 0 l 257
 10 700 l 257
267 514 m 257
 322 700 l 257
 466 700 l 257
 426 569 385 430 343 290 c 257
 333 290 l 257
 267 514 l 257
322 700 m 257
 466 700 l 257
 624 158 l 257
 572 0 l 257
 525 0 l 257
 322 700 l 257
583 514 m 257
 638 700 l 257
 782 700 l 257
 659 290 l 257
 649 290 l 257
 583 514 l 257
EndSplineSet
EndChar

StartChar: X
Encoding: 88 88 85
GlifName: X_
Width: 442
VWidth: 0
GlyphClass: 2
Flags: W
LayerCount: 2
Back
Fore
SplineSet
15 0 m 257
 151 361 l 257
 27 700 l 257
 164 700 l 257
 221 548 l 257
 278 700 l 257
 415 700 l 257
 291 361 l 257
 427 0 l 257
 282 0 l 257
 221 167 l 257
 160 0 l 257
 15 0 l 257
EndSplineSet
EndChar

StartChar: Y
Encoding: 89 89 86
GlifName: Y_
Width: 451
VWidth: 0
GlyphClass: 2
Flags: W
LayerCount: 2
Back
Fore
SplineSet
12 700 m 257
 159 700 l 257
 289 253 l 257
 289 0 l 257
 143 0 l 257
 143 252 l 257
 12 700 l 257
255 565 m 257
 294 700 l 257
 439 700 l 257
 330 331 l 257
 321 331 l 257
 255 565 l 257
EndSplineSet
EndChar

StartChar: Z
Encoding: 90 90 89
GlifName: Z_
Width: 426
VWidth: 0
GlyphClass: 2
Flags: W
LayerCount: 2
Back
Fore
SplineSet
30 0 m 257
 30 141 l 257
 240 560 l 257
 30 560 l 257
 30 700 l 257
 396 700 l 257
 396 563 l 257
 186 144 l 257
 396 144 l 257
 396 0 l 257
 30 0 l 257
EndSplineSet
EndChar

StartChar: a
Encoding: 97 97 93
GlifName: a
Width: 472
VWidth: 0
GlyphClass: 2
Flags: W
LayerCount: 2
Back
Fore
SplineSet
24.7002 132 m 258
 24.7002 182.601 l 258
 24.7002 218.9 32.4004 255.2 78.6006 281.601 c 256
 125.9 309.101 290.9 341 290.9 385 c 256
 290.9 392.734 290.9 400.468 290.9 408.2 c 256
 290.9 429.452 278.931 446.369 246.9 446.7 c 257
 246.9 569.801 l 257
 362.188 569.801 418.5 477.417 418.5 416.9 c 258
 418.5 156.2 l 258
 418.5 148.137 421.71 124.301 447.101 124.301 c 257
 447.101 0 l 257
 404.39 0 372.175 12.3721 349.2 31.9004 c 257
 322.847 11.2764 289.748 0 248 0 c 257
 248 123.2 l 257
 282.922 123.2 290.9 148.946 290.9 162.801 c 258
 290.9 244.601 l 257
 249.101 220.4 164.4 203.9 149 196.2 c 256
 142.4 192.9 135.801 185.2 135.801 173.101 c 258
 135.801 158.801 l 258
 135.801 135.4 146.089 123.2 194.101 123.2 c 257
 194.101 0 l 257
 87.4004 0 24.7002 69.3008 24.7002 132 c 258
32.4004 426.801 m 257
 32.4004 508.481 116.778 569.801 195.2 569.801 c 257
 195.2 446.601 l 257
 164.785 446.601 147.9 426.158 147.9 382.801 c 257
 32.4004 426.801 l 257
EndSplineSet
EndChar

StartChar: acute
Encoding: 180 180 97
GlifName: acute
Width: 395
VWidth: 0
GlyphClass: 2
Flags: W
LayerCount: 2
Back
Fore
SplineSet
115 605 m 257
 152 757 l 257
 279 757 l 257
 206 605 l 257
 115 605 l 257
EndSplineSet
EndChar

StartChar: ae
Encoding: 299 230 99
GlifName: ae
Width: 666
VWidth: 0
GlyphClass: 2
Flags: W
LayerCount: 2
Back
Fore
SplineSet
26 110 m 258
 26 180 l 258
 26 289.187 268 283.161 268 351 c 258
 268 373 l 258
 268 395.242 240.626 411.052 211 411.12 c 256
 176.042 411.221 138 392.339 138 349 c 257
 43 375 l 257
 43 455.338 119.651 519 207 519 c 256
 263.311 519 298.192 506.365 329 483 c 257
 354.637 503.296 386.656 516 429 516 c 257
 429 401 l 257
 401.374 401 384.356 381.22 384 363 c 257
 384 324 l 257
 525 324 l 257
 525 359 l 258
 525 386.846 500.235 401 478 401 c 257
 478 516 l 257
 551.935 516 639 453.491 639 378 c 258
 639 208 l 257
 384 208 l 257
 384 159 l 258
 384 126.256 413.877 108 450 108 c 256
 503.201 108 532.298 116.973 541 157 c 257
 640 120 l 257
 620.192 39.5286 546.206 0 454 0 c 256
 396 0 351.406 13.3945 321 40 c 257
 302.042 15.251 266.953 1 229 1 c 257
 229 113 l 257
 260.747 113 268 144.588 268 149 c 258
 268 227 l 257
 220.897 199.73 127 198.287 127 162 c 258
 127 149 l 258
 127 119.701 145.25 113 180 113 c 257
 180 1 l 257
 83 1 26 53 26 110 c 258
EndSplineSet
EndChar

StartChar: ampersand
Encoding: 38 38 102
GlifName: ampersand
Width: 658
VWidth: 0
GlyphClass: 2
Flags: W
LayerCount: 2
Back
Fore
SplineSet
286.916 153.731 m 257
 272.141 142.43 256.631 137.615 241.958 137.615 c 256
 203.435 137.615 170.558 171.344 170.558 208.705 c 256
 170.558 226.731 178.212 245.604 196.579 261.941 c 257
 103.74 370.914 l 257
 58.5303 332.301 30 275.844 30 213 c 256
 30 95.4482 125.896 0 244 0 c 256
 294.714 0 341.264 17.7412 377.614 47.2705 c 257
 286.916 153.731 l 257
343 526 m 256
 343 539 338 566 314 575 c 257
 314 706 l 257
 391.615 695.919 453.283 636.194 468.426 559 c 257
 343 526 l 256
259 574.5 m 256
 245 571.505 231 555.25 231 533 c 256
 231 511.262 241.68 494.876 255 477.5 c 257
 414 287 l 257
 424.286 299.884 434.857 320.657 438 345 c 257
 581 345 l 257
 571.811 271.418 548.838 222.709 513 174 c 257
 628 37 l 257
 487 0 l 257
 156 393 l 257
 114.799 446.427 102 481.59 102 532 c 256
 102 620.729 168.033 693.764 259 706.069 c 257
 259 574.5 l 256
EndSplineSet
EndChar

StartChar: approxequal
Encoding: 302 8776 104
GlifName: approxequal
Width: 568
VWidth: 0
GlyphClass: 2
Flags: W
LayerCount: 2
Back
Fore
SplineSet
50 164 m 257
 50 297 l 257
 95 323 132 332 163 332 c 256
 250 332 299 259 387 259 c 256
 422 259 464 271 518 304 c 257
 518 173 l 257
 462 139 418 127 381 127 c 256
 289 127 239 200 157 200 c 256
 127 200 92 191 50 164 c 257
50 402 m 257
 50 535 l 257
 95 561 132 570 163 570 c 256
 250 570 299 497 387 497 c 256
 422 497 464 509 518 542 c 257
 518 411 l 257
 462 377 418 365 381 365 c 256
 289 365 239 438 157 438 c 256
 127 438 92 429 50 402 c 257
EndSplineSet
EndChar

StartChar: asciicircum
Encoding: 94 94 106
GlifName: asciicircum
Width: 506
VWidth: 0
GlyphClass: 2
Flags: W
LayerCount: 2
Back
Fore
SplineSet
60 460 m 257
 209 756 l 257
 297 756 l 257
 446 460 l 257
 323 460 l 257
 252 603 l 257
 182 460 l 257
 60 460 l 257
EndSplineSet
EndChar

StartChar: asciitilde
Encoding: 126 126 107
GlifName: asciitilde
Width: 628
VWidth: 0
GlyphClass: 2
Flags: W
LayerCount: 2
Back
Fore
SplineSet
80 272 m 257
 80 405 l 257
 125 431 162 440 193 440 c 256
 280 440 329 367 417 367 c 256
 452 367 494 379 548 412 c 257
 548 281 l 257
 492 247 448 235 411 235 c 256
 319 235 269 308 187 308 c 256
 157 308 122 299 80 272 c 257
EndSplineSet
EndChar

StartChar: asterisk
Encoding: 42 42 108
GlifName: asterisk
Width: 324
VWidth: 0
GlyphClass: 2
Flags: W
LayerCount: 2
Back
Fore
SplineSet
15 691 m 257
 57 748 l 257
 125 704 l 257
 125 785 l 257
 196 785 l 257
 196 702 l 257
 267 748 l 257
 309 691 l 257
 221 632 l 257
 308 572 l 257
 267 515 l 257
 196 565 l 257
 196 478 l 257
 125 478 l 257
 125 564 l 257
 57 517 l 257
 16 574 l 257
 103 633 l 257
 15 691 l 257
EndSplineSet
EndChar

StartChar: at
Encoding: 64 64 109
GlifName: at
Width: 803
VWidth: 0
GlyphClass: 2
Flags: W
LayerCount: 2
Back
Fore
SplineSet
16 309 m 256
 16 533 191 715 448 715 c 256
 610 715 786 612 786 412 c 256
 786 201 654 116 532 116 c 256
 494 116 463 137 453 161 c 257
 439 139 407 116 344 116 c 256
 268 116 205 193 205 289 c 256
 205 444 327 519 409 519 c 256
 473 519 495 493 510 477 c 257
 518 504 l 257
 602 504 l 257
 552 308 l 258
 549 297 545 280 545 266 c 256
 545 249 549 240 563 240 c 256
 598 240 666 280 666 412 c 256
 666 530 549 602 451 602 c 256
 284 602 136 481 136 312 c 256
 136 122 260 22 414 22 c 256
 501 22 587 47 667 103 c 257
 717 12 l 257
 658 -45 538 -87 423 -87 c 256
 195 -87 16 47 16 309 c 256
EndSplineSet
EndChar

StartChar: b
Encoding: 98 98 111
GlifName: b
Width: 466
VWidth: 0
GlyphClass: 2
Flags: W
LayerCount: 2
Back
Fore
SplineSet
42 0 m 257
 42 716 l 257
 179.5 716 l 257
 179.5 0 l 257
 42 0 l 257
232.5 -0.160156 m 257
 232.5 129.64 l 257
 268.8 129.64 l 258
 299.6 129.64 306.199 156.04 306.199 157.14 c 257
 306.199 412.6 l 257
 306.199 414.8 299.6 439 269.899 440.1 c 258
 232.5 440.1 l 257
 232.5 569.9 l 257
 268.8 569.9 l 258
 381 569.9 434.899 466.5 436 417 c 257
 436 154.94 l 258
 436 106.54 382.1 -0.160156 268.8 -0.160156 c 258
 232.5 -0.160156 l 257
EndSplineSet
EndChar

StartChar: backslash
Encoding: 92 92 112
GlifName: backslash
Width: 385
VWidth: 0
GlyphClass: 2
Flags: W
LayerCount: 2
Back
Fore
SplineSet
42 716 m 257
 168 716 l 257
 343 -23 l 257
 216 -23 l 257
 42 716 l 257
EndSplineSet
EndChar

StartChar: bar
Encoding: 124 124 113
GlifName: bar
Width: 205
VWidth: 0
GlyphClass: 2
Flags: W
LayerCount: 2
Back
Fore
SplineSet
50 -134 m 257
 50 754 l 257
 155 754 l 257
 155 -134 l 257
 50 -134 l 257
EndSplineSet
EndChar

StartChar: braceleft
Encoding: 123 123 114
GlifName: braceleft
Width: 292
VWidth: 0
GlyphClass: 2
Flags: W
LayerCount: 2
Back
Fore
SplineSet
15 348 m 257
 51 363 76 370 77 408 c 258
 77 504 l 258
 77 715 163 735 272 735 c 257
 272 635 l 257
 204 635 205 591 204 469 c 257
 204 383 l 258
 204 366 184 354 160 348 c 257
 185 340 204 325 204 304 c 258
 204 207 l 258
 204 86 218 61 272 61 c 257
 272 -38 l 257
 167.721 -37 77 -41.0037 77 192 c 258
 77 290 l 258
 77 322 51 329 15 348 c 257
EndSplineSet
EndChar

StartChar: braceright
Encoding: 125 125 115
GlifName: braceright
Width: 292
VWidth: 0
GlyphClass: 2
Flags: W
LayerCount: 2
Back
Fore
SplineSet
20 -38 m 257
 20 61 l 257
 74 61 88 87 88 208 c 258
 88 304 l 258
 88 325 107 340 132 348 c 257
 107.305 354.174 88 365.938 88 384 c 258
 88 469 l 258
 87 591 88 635 20 635 c 257
 20 735 l 257
 129 735 215 715 215 504 c 258
 215 408 l 258
 216 370 241 363 277 348 c 257
 241 329 215 322 215 290 c 258
 215 192 l 258
 215 -31.0023 124.193 -38 20 -38 c 257
EndSplineSet
EndChar

StartChar: bracketleft
Encoding: 91 91 116
GlifName: bracketleft
Width: 258
VWidth: 0
GlyphClass: 2
Flags: W
LayerCount: 2
Back
Fore
SplineSet
50 -36 m 257
 50 739 l 257
 244 739 l 257
 244 629 l 257
 183 629 l 257
 180 74 l 257
 244 74 l 257
 244 -36 l 257
 50 -36 l 257
EndSplineSet
EndChar

StartChar: bracketright
Encoding: 93 93 117
GlifName: bracketright
Width: 251
VWidth: 0
GlyphClass: 2
Flags: W
LayerCount: 2
Back
Fore
SplineSet
14 -36 m 257
 14 74 l 257
 78 74 l 257
 75 629 l 257
 14 629 l 257
 14 739 l 257
 208 739 l 257
 208 -36 l 257
 14 -36 l 257
EndSplineSet
EndChar

StartChar: breve
Encoding: 162 728 118
GlifName: breve
Width: 244
VWidth: 0
GlyphClass: 2
Flags: W
LayerCount: 2
Back
Fore
SplineSet
26 526 m 257
 90 526 l 257
 90 508 104 494 122 494 c 256
 140 494 154 508 154 526 c 257
 218 526 l 257
 218 473 175 430 122 430 c 256
 69 430 26 473 26 526 c 257
EndSplineSet
EndChar

StartChar: brokenbar
Encoding: 305 166 119
GlifName: brokenbar
Width: 214
VWidth: 0
GlyphClass: 2
Flags: W
LayerCount: 2
Back
Fore
SplineSet
42 -140 m 257
 42 217 l 257
 164 217 l 257
 164 -140 l 257
 42 -140 l 257
42 407 m 257
 42 764 l 257
 164 764 l 257
 164 407 l 257
 42 407 l 257
EndSplineSet
EndChar

StartChar: bullet
Encoding: 306 8226 120
GlifName: bullet
Width: 352
VWidth: 0
GlyphClass: 2
Flags: W
LayerCount: 2
Back
Fore
SplineSet
26 344 m 256
 26 428 92 496 176 496 c 256
 260 496 326 428 326 344 c 256
 326 260 260 194 176 194 c 256
 92 194 26 260 26 344 c 256
EndSplineSet
EndChar

StartChar: c
Encoding: 99 99 121
GlifName: c
Width: 456
VWidth: 0
GlyphClass: 2
Flags: W
LayerCount: 2
Back
Fore
SplineSet
37.8008 155.14 m 258
 37.7002 417.101 l 257
 38.8945 469.655 91.3271 570 214.8 570 c 257
 214.8 442.4 l 257
 179.71 442.4 168.6 425.995 168.6 414.9 c 258
 168.7 155.14 l 258
 168.708 135.322 182.963 127.985 215.7 127.44 c 257
 215.7 0.0400391 l 257
 86.0484 0.0400391 37.8207 103.232 37.8008 155.14 c 258
261 441.301 m 257
 261 570 l 257
 350.647 570 423.8 498.052 423.8 411.601 c 257
 301.7 365.4 l 257
 301.7 398.4 l 258
 301.7 430.577 285.047 441.301 261 441.301 c 257
261.101 -1.05957 m 257
 261.101 127.64 l 257
 296.083 127.64 313.9 134.79 313.9 171.64 c 258
 313.9 204.64 l 257
 436 158.44 l 257
 437.058 73.3925 348.636 -3.78023 261.101 -1.05957 c 257
EndSplineSet
EndChar

StartChar: caron
Encoding: 308 711 123
GlifName: caron
Width: 270
VWidth: 0
GlyphClass: 2
Flags: W
LayerCount: 2
Back
Fore
SplineSet
26 666 m 257
 107 666 l 257
 134 609 l 257
 162 666 l 257
 244 666 l 257
 167 514 l 257
 101 514 l 257
 26 666 l 257
EndSplineSet
EndChar

StartChar: cedilla
Encoding: 184 184 126
GlifName: cedilla
Width: 426
VWidth: 0
GlyphClass: 2
Flags: W
LayerCount: 2
Back
Fore
SplineSet
123 -36 m 257
 123 55 l 257
 159 55 199 68 199 123 c 257
 291 123 l 257
 291 47 250 -36 123 -36 c 257
EndSplineSet
EndChar

StartChar: cent
Encoding: 310 162 127
GlifName: cent
Width: 456
VWidth: 0
GlyphClass: 2
Flags: W
LayerCount: 2
Back
Fore
SplineSet
261 31 m 257
 312 31 l 257
 312 -94 l 257
 261 -94 l 257
 261 31 l 257
165 31 m 257
 215 31 l 257
 215 -94 l 257
 165 -94 l 257
 165 31 l 257
261 662 m 257
 312 662 l 257
 312 537 l 257
 261 537 l 257
 261 662 l 257
165 662 m 257
 215 662 l 257
 215 537 l 257
 165 537 l 257
 165 662 l 257
37.8008 155.14 m 258
 37.8008 414.74 l 257
 38.9948 467.295 95.4275 567.64 214.9 567.64 c 257
 214.9 440.04 l 257
 178.811 440.04 168.7 420.298 168.7 399.54 c 258
 168.7 165.14 l 258
 168.7 151.299 181.532 129.483 214.7 128.44 c 257
 214.7 0.0400391 l 257
 85.0367 0.0400391 37.8008 103.221 37.8008 155.14 c 258
261.101 438.94 m 257
 261.101 567.64 l 257
 348.785 567.64 423.9 495.669 423.9 409.24 c 257
 301.801 363.04 l 257
 301.801 399.04 l 258
 301.801 427.521 281.255 438.94 261.101 438.94 c 257
261.101 -1.05957 m 257
 261.101 127.64 l 257
 286.439 127.64 313.9 135.486 313.9 171.64 c 258
 313.9 204.64 l 257
 436 158.44 l 257
 436 71.3343 349.495 -1.05957 261.101 -1.05957 c 257
EndSplineSet
EndChar

StartChar: circumflex
Encoding: 311 710 128
GlifName: circumflex
Width: 270
VWidth: 0
GlyphClass: 2
Flags: W
LayerCount: 2
Back
Fore
SplineSet
26 514 m 257
 101 666 l 257
 167 666 l 257
 244 514 l 257
 162 514 l 257
 134 571 l 257
 107 514 l 257
 26 514 l 257
EndSplineSet
EndChar

StartChar: colon
Encoding: 58 58 129
GlifName: colon
Width: 250
VWidth: 0
GlyphClass: 2
Flags: W
LayerCount: 2
Back
Fore
SplineSet
50 140 m 256
 50 182 83 216 125 216 c 256
 167 216 200 182 200 140 c 256
 200 98 167 65 125 65 c 256
 83 65 50 98 50 140 c 256
50 430 m 256
 50 472 83 506 125 506 c 256
 167 506 200 472 200 430 c 256
 200 388 167 355 125 355 c 256
 83 355 50 388 50 430 c 256
EndSplineSet
EndChar

StartChar: comma
Encoding: 44 44 130
GlifName: comma
Width: 265
VWidth: 0
GlyphClass: 2
Flags: W
LayerCount: 2
Back
Fore
SplineSet
51 -23 m 257
 88 129 l 257
 215 129 l 257
 178 -23 l 257
 51 -23 l 257
EndSplineSet
EndChar

StartChar: copyright
Encoding: 312 169 131
GlifName: copyright
Width: 824
VWidth: 0
GlyphClass: 2
Flags: W
LayerCount: 2
Back
Fore
SplineSet
35 339 m 256
 35 589 249 725 397 726 c 257
 397 636 l 257
 268 635 124 516 124 339 c 256
 124 181.15 249.073 51.0924 397 44 c 257
 397 -49 l 257
 222.152 -42.9007 35 107.929 35 339 c 256
272 231 m 257
 272 447 l 257
 272 485 306 566 397 566 c 257
 397 476 l 257
 368 476 362 450 362 447 c 257
 362 231 l 257
 362 228 368 203 397 203 c 257
 397 112 l 257
 306 112 272 193 272 231 c 257
432 -49 m 257
 432 44 l 257
 578 51 705 178.971 705 332 c 256
 705 513.455 565.243 634.967 432 636 c 257
 432 726 l 257
 587.471 724.95 794 584.547 794 327 c 257
 788 104 604 -43 432 -49 c 257
432 112 m 257
 432 201 l 257
 449.448 201.404 462 217.38 462 242 c 258
 462 264 l 257
 550 232 l 257
 550 171 491 112 432 112 c 257
432 476 m 257
 432 566 l 257
 491 566 550 507 550 446 c 257
 462 413 l 257
 462 432 l 258
 462 461.81 446.434 475.508 432 476 c 257
EndSplineSet
EndChar

StartChar: currency
Encoding: 164 164 132
GlifName: currency
Width: 646
VWidth: 0
GlyphClass: 2
Flags: W
LayerCount: 2
Back
Fore
SplineSet
41 190 m 257
 136 275 l 257
 136 288 l 257
 136 440 l 257
 136 456 l 257
 40 540 l 257
 112 622 l 257
 188 555 l 257
 214.844 579.697 251.026 595 300 595 c 257
 300 477 l 257
 265.404 477 256 458.279 256 442 c 258
 256 285 l 258
 256 266.114 268.097 251 300 251 c 257
 300 133 l 257
 249.955 133 213.847 149.227 187 175 c 257
 112 109 l 257
 41 190 l 257
341 133 m 257
 341 250 l 257
 374.103 250 383 268.803 383 285 c 258
 383 441 l 258
 383 460.057 373.117 477 341 477 c 257
 341 595 l 257
 388.187 595 422.07 579.775 449 555 c 257
 524 622 l 257
 596 540 l 257
 500 455 l 257
 500 442 l 257
 500 288 l 257
 500 275 l 257
 595 190 l 257
 524 109 l 257
 450 174 l 257
 423.139 148.214 389.138 133 341 133 c 257
EndSplineSet
EndChar

StartChar: d
Encoding: 100 100 133
GlifName: d
Width: 461
VWidth: 0
GlyphClass: 2
Flags: W
LayerCount: 2
Back
Fore
SplineSet
30 154.99 m 258
 30 414.59 l 257
 31.1006 464.09 83.9004 567.49 195 567.49 c 258
 228 567.49 l 257
 228 437.69 l 257
 195 437.69 l 257
 165.3 436.59 159.8 412.39 159.8 410.19 c 258
 159.8 157.19 l 257
 159.8 154.99 166.4 129.69 197.2 129.69 c 258
 228 129.69 l 257
 228 -0.110352 l 257
 197.2 -0.110352 l 258
 82.7998 -0.110352 30 106.59 30 154.99 c 258
280.8 -0.110352 m 257
 281 716 l 257
 419.601 716 l 257
 419.4 -0.110352 l 257
 280.8 -0.110352 l 257
EndSplineSet
EndChar

StartChar: dagger
Encoding: 313 8224 134
GlifName: dagger
Width: 453
VWidth: 0
GlyphClass: 2
Flags: W
LayerCount: 2
Back
Fore
SplineSet
26 450 m 257
 26 577 l 257
 156 577 l 257
 156 764 l 257
 297 764 l 257
 297 577 l 257
 427 577 l 257
 427 450 l 257
 297 450 l 257
 297 -56 l 257
 156 -56 l 257
 156 450 l 257
 26 450 l 257
EndSplineSet
EndChar

StartChar: daggerdbl
Encoding: 314 8225 135
GlifName: daggerdbl
Width: 453
VWidth: 0
GlyphClass: 2
Flags: W
LayerCount: 2
Back
Fore
SplineSet
26 131 m 257
 26 258 l 257
 156 258 l 257
 156 450 l 257
 26 450 l 257
 26 577 l 257
 156 577 l 257
 156 764 l 257
 297 764 l 257
 297 577 l 257
 427 577 l 257
 427 450 l 257
 297 450 l 257
 297 258 l 257
 427 258 l 257
 427 131 l 257
 297 131 l 257
 297 -56 l 257
 156 -56 l 257
 156 131 l 257
 26 131 l 257
EndSplineSet
EndChar

StartChar: dcroat
Encoding: 316 273 137
GlifName: dcroat
Width: 414
VWidth: 0
GlyphClass: 2
Flags: W
LayerCount: 2
Back
Fore
SplineSet
30 141 m 258
 30 377 l 257
 31 422 79 516 180 516 c 258
 210 516 l 257
 210 398 l 257
 180 398 l 257
 153 397 148 375 148 373 c 258
 148 143 l 257
 148 141 154 118 182 118 c 258
 210 118 l 257
 210 0 l 257
 182 0 l 258
 78 0 30 97 30 141 c 258
174 570 m 257
 174 666 l 257
 258 666 l 257
 258 716 l 257
 384 716 l 257
 384 666 l 257
 448 666 l 257
 448 570 l 257
 384 570 l 257
 384 0 l 257
 258 0 l 257
 258 570 l 257
 174 570 l 257
EndSplineSet
EndChar

StartChar: degree
Encoding: 176 176 138
GlifName: degree
Width: 301
VWidth: 0
GlyphClass: 2
Flags: W
LayerCount: 2
Back
Fore
SplineSet
35 583 m 256
 35 647 87 698 150 698 c 256
 214 698 266 647 266 583 c 256
 266 520 214 468 150 468 c 256
 87 468 35 520 35 583 c 256
112 583 m 256
 112 562 129 545 150 545 c 256
 172 545 189 562 189 583 c 256
 189 605 172 622 150 622 c 256
 129 622 112 605 112 583 c 256
EndSplineSet
EndChar

StartChar: dieresis
Encoding: 168 168 139
GlifName: dieresis
Width: 430
VWidth: 0
GlyphClass: 2
Flags: W
LayerCount: 2
Back
Fore
SplineSet
55 678 m 256
 55 720 88 754 130 754 c 256
 172 754 205 720 205 678 c 256
 205 636 172 603 130 603 c 256
 88 603 55 636 55 678 c 256
225 678 m 256
 225 720 258 754 300 754 c 256
 342 754 375 720 375 678 c 256
 375 636 342 603 300 603 c 256
 258 603 225 636 225 678 c 256
EndSplineSet
EndChar

StartChar: divide
Encoding: 247 247 140
GlifName: divide
Width: 650
VWidth: 0
GlyphClass: 2
Flags: W
LayerCount: 2
Back
Fore
SplineSet
68 228 m 257
 68 355 l 257
 518 355 l 257
 518 228 l 257
 68 228 l 257
EndSplineSet
Refer: 236 46 N 1 0 0 1 196 415 2
Refer: 236 46 N 1 0 0 1 196 62 2
EndChar

StartChar: dollar
Encoding: 36 36 141
GlifName: dollar
Width: 481
VWidth: 0
GlyphClass: 2
Flags: W
LayerCount: 2
Back
Fore
SplineSet
20 158 m 257
 147 203 l 257
 149 147 203 127 203 127 c 257
 203 -47 l 257
 132 -47 l 257
 132 13 l 257
 63 45 21 116 20 158 c 257
28 508 m 256
 28 599 81 652 132 679 c 257
 132 750 l 257
 203 750 l 257
 203 568 l 257
 182 562 162 537 162 513 c 256
 162 486 179 469 203 454 c 257
 203 302 l 257
 184 309 166 316 151 323 c 256
 80 357 28 403 28 508 c 256
258 -47 m 257
 258 127 l 257
 282 130 320 150 320 203 c 256
 320 241 293 263 258 280 c 257
 258 428 l 257
 284 418 310 407 333 394 c 256
 394 358 461 311 461 209 c 256
 461 122 404 44 329 12 c 257
 329 -47 l 257
 258 -47 l 257
258 568 m 257
 258 750 l 257
 329 750 l 257
 329 682 l 257
 392 649 428 580 433 553 c 257
 303 510 l 257
 298 557 258 568 258 568 c 257
EndSplineSet
EndChar

StartChar: dotaccent
Encoding: 255 729 142
GlifName: dotaccent
Width: 202
VWidth: 0
GlyphClass: 2
Flags: W
LayerCount: 2
Back
Fore
SplineSet
26 678 m 256
 26 720 59 754 101 754 c 256
 143 754 176 720 176 678 c 256
 176 636 143 603 101 603 c 256
 59 603 26 636 26 678 c 256
EndSplineSet
EndChar

StartChar: dotlessi
Encoding: 185 305 143
GlifName: dotlessi
Width: 174
VWidth: 0
GlyphClass: 2
Flags: W
LayerCount: 2
Back
Fore
SplineSet
26 0 m 257
 26 516 l 257
 148 516 l 257
 148 0 l 257
 26 0 l 257
EndSplineSet
EndChar

StartChar: e
Encoding: 101 101 144
GlifName: e
Width: 485
VWidth: 0
GlyphClass: 2
Flags: W
LayerCount: 2
Back
Fore
SplineSet
37.8008 155.09 m 258
 37.8008 416.69 l 257
 38.9766 469.638 99.3594 569.59 214.9 569.59 c 257
 214.9 443.99 l 257
 189.363 443.99 172 422.821 172 407.89 c 258
 172 358.39 l 257
 320.5 358.39 l 257
 320.5 406.89 l 258
 320.5 439.482 293.259 444.19 268.801 444.19 c 257
 268.801 569.59 l 257
 350.129 569.59 445.9 508.83 445.9 417.79 c 258
 445.9 228.79 l 257
 172 228.79 l 257
 172 155.09 l 258
 172 139.521 182.227 122.79 216 122.79 c 257
 216 -0.00976562 l 257
 98.3311 -0.00976562 37.8008 102.095 37.8008 155.09 c 258
268.801 -0.00976562 m 257
 268.801 122.09 l 257
 311.067 122.09 330.221 145.183 338.101 172.69 c 257
 447 131.99 l 257
 431.57 68.0991 365.447 -0.00976562 268.801 -0.00976562 c 257
EndSplineSet
EndChar

StartChar: eight
Encoding: 56 56 151
GlifName: eight
Width: 492
VWidth: 0
GlyphClass: 2
Flags: W
LayerCount: 2
Back
Fore
SplineSet
217 -2 m 257
 134 -2 30 80 30 200 c 256
 30 284 67 331 94 349 c 257
 67 367 30 414 30 498 c 256
 30 618 134 700 217 700 c 257
 217 571 l 257
 178.406 564.903 158.998 528.693 158.998 492.329 c 256
 158.998 456.417 177.928 420.354 216 413 c 257
 216 285 l 257
 177.928 277.646 158.998 241.583 158.998 205.671 c 256
 158.998 169.307 178.406 133.097 217 127 c 257
 217 -2 l 257
275 -2 m 257
 275 127 l 257
 313.594 133.097 333.002 169.307 333.002 205.671 c 256
 333.002 241.583 314.072 277.646 276 285 c 257
 276 413 l 257
 314.072 420.354 333.002 456.417 333.002 492.329 c 256
 333.002 528.693 313.594 564.903 275 571 c 257
 275 700 l 257
 358 700 462 618 462 498 c 256
 462 414 425 367 398 349 c 257
 425 331 462 284 462 200 c 256
 462 80 358 -2 275 -2 c 257
EndSplineSet
EndChar

StartChar: ellipsis
Encoding: 319 8230 152
GlifName: ellipsis
Width: 611
VWidth: 0
GlyphClass: 2
Flags: W
LayerCount: 2
Back
Fore
SplineSet
30 54 m 256
 30 96 63 130 105 130 c 256
 147 130 180 96 180 54 c 256
 180 12 147 -21 105 -21 c 256
 63 -21 30 12 30 54 c 256
231 54 m 256
 231 96 264 130 306 130 c 256
 348 130 381 96 381 54 c 256
 381 12 348 -21 306 -21 c 256
 264 -21 231 12 231 54 c 256
431 54 m 256
 431 96 464 130 506 130 c 256
 548 130 581 96 581 54 c 256
 581 12 548 -21 506 -21 c 256
 464 -21 431 12 431 54 c 256
EndSplineSet
EndChar

StartChar: emdash
Encoding: 321 8212 154
GlifName: emdash
Width: 906
VWidth: 0
GlyphClass: 2
Flags: W
LayerCount: 2
Back
Fore
SplineSet
26 230 m 257
 26 357 l 257
 880 357 l 257
 880 230 l 257
 26 230 l 257
EndSplineSet
EndChar

StartChar: endash
Encoding: 322 8211 155
GlifName: endash
Width: 532
VWidth: 0
GlyphClass: 2
Flags: W
LayerCount: 2
Back
Fore
SplineSet
26 230 m 257
 26 357 l 257
 506 357 l 257
 506 230 l 257
 26 230 l 257
EndSplineSet
EndChar

StartChar: equal
Encoding: 61 61 157
GlifName: equal
Width: 418
VWidth: 0
GlyphClass: 2
Flags: W
LayerCount: 2
Back
Fore
SplineSet
50 131 m 257
 50 258 l 257
 368 258 l 257
 368 131 l 257
 50 131 l 257
50 325 m 257
 50 452 l 257
 368 452 l 257
 368 325 l 257
 50 325 l 257
EndSplineSet
EndChar

StartChar: estimated
Encoding: 324 8494 158
GlifName: estimated
Width: 531
VWidth: 0
GlyphClass: 2
Flags: W
LayerCount: 2
Back
Fore
SplineSet
238 -3 m 257
 133.36 -3 30 80.2842 30 196 c 258
 30 506 l 258
 30 621.716 133.36 705 238 705 c 257
 238 565 l 257
 206.033 562 170 538.067 170 471 c 258
 170 406 l 257
 361 406 l 257
 361 471 l 258
 361 538.067 324.967 562 293 565 c 257
 293 705 l 257
 397.64 705 501 621.716 501 506 c 258
 501 266 l 257
 170 266 l 257
 170 231 l 258
 170 163.933 208.033 140 238 137 c 257
 238 -3 l 257
293 -3 m 257
 293 137 l 257
 319.882 139.691 353.256 159.228 359.842 211.638 c 257
 500.152 177.964 l 257
 490.09 71.7282 392.119 -3 293 -3 c 257
EndSplineSet
EndChar

StartChar: eth
Encoding: 325 240 159
GlifName: eth
Width: 420
VWidth: 0
GlyphClass: 2
Flags: W
LayerCount: 2
Back
Fore
SplineSet
28 141 m 258
 28 376 l 258
 28 424.752 81.5188 516 192 516 c 257
 192 398 l 257
 156.092 398 148 376.836 148 363 c 258
 148 154 l 258
 148 131.443 158.637 117 192 117 c 257
 192 -1 l 257
 80.4842 -1 28 93.1756 28 141 c 258
192 647 m 257
 192 714 l 257
 250 703 297 679 330 641 c 257
 380 657 l 257
 398 599 l 257
 364 588 l 257
 383 548 392 500 392 442 c 258
 392 141 l 258
 392 92.1498 340.64 -1 233 -1 c 257
 233 117 l 257
 267.125 117 275 137.897 275 152 c 258
 275 363 l 258
 275 383.592 266.243 398 233 398 c 257
 233 516 l 257
 247.851 516 260.062 515.529 273 512 c 257
 271 530 270 545 267 558 c 257
 210 541 l 257
 192 598 l 257
 242 614 l 257
 230 627 214 637 192 647 c 257
EndSplineSet
EndChar

StartChar: exclam
Encoding: 33 33 160
GlifName: exclam
Width: 244
VWidth: 0
GlyphClass: 2
Flags: W
LayerCount: 2
Back
Fore
SplineSet
47 53 m 256
 47 95 80 129 122 129 c 256
 164 129 197 95 197 53 c 256
 197 11 164 -22 122 -22 c 256
 80 -22 47 11 47 53 c 256
59 166 m 257
 59 700 l 257
 188 700 l 257
 188 166 l 257
 59 166 l 257
EndSplineSet
EndChar

StartChar: exclamdown
Encoding: 326 161 161
GlifName: exclamdown
Width: 245
VWidth: 0
GlyphClass: 2
Flags: W
LayerCount: 2
Back
Fore
SplineSet
21.4004 494.64 m 256
 21.4004 538.64 57.7002 574.94 101.7 574.94 c 256
 145.7 574.94 182 538.64 182 494.64 c 256
 182 451.74 145.7 415.44 101.7 415.44 c 256
 57.7002 415.44 21.4004 451.74 21.4004 494.64 c 256
35.7002 -198.36 m 257
 35.7002 369.24 l 257
 169.9 369.24 l 257
 169.9 -198.36 l 257
 35.7002 -198.36 l 257
EndSplineSet
EndChar

StartChar: f
Encoding: 102 102 162
GlifName: f
Width: 321
VWidth: 0
GlyphClass: 2
Flags: W
LayerCount: 2
Back
Fore
SplineSet
15.1992 388.99 m 257
 15.1992 518.59 l 257
 84.5 518.59 l 257
 84.5 558.19 l 258
 84.5 607.69 140.6 715.49 253.899 716.59 c 258
 321 716.59 l 257
 291.3 587.89 l 257
 255 587.89 l 257
 224.199 586.79 218.699 561.49 218.699 558.19 c 258
 218.699 519.49 l 257
 291.3 518.59 l 257
 291.3 388.99 l 257
 218.699 388.99 l 257
 218.699 -0.00976562 l 257
 84.5 -0.00976562 l 257
 84.5 388.99 l 257
 15.1992 388.99 l 257
EndSplineSet
EndChar

StartChar: fi
Encoding: 327 64257 163
GlifName: fi
Width: 494
VWidth: 0
GlyphClass: 2
Flags: W
LayerCount: 2
Back
Fore
SplineSet
26 400 m 257
 26 516 l 257
 89 516 l 257
 89 552 l 258
 89 597 140 695 243 696 c 258
 304 696 l 257
 277 579 l 257
 244 579 l 258
 216 578 211 555 211 552 c 258
 211 516 l 257
 457 516 l 257
 457 0 l 257
 335 0 l 257
 335 400 l 257
 211 400 l 257
 211 0 l 257
 89 0 l 257
 89 400 l 257
 26 400 l 257
322 630 m 256
 322 670 355 703 395 703 c 256
 435 703 468 670 468 630 c 256
 468 591 435 558 395 558 c 256
 355 558 322 591 322 630 c 256
EndSplineSet
EndChar

StartChar: five
Encoding: 53 53 164
GlifName: five
Width: 520
VWidth: 0
GlyphClass: 2
Flags: W
LayerCount: 2
Back
Fore
SplineSet
45 354 m 257
 74 700 l 257
 433 700 l 257
 433 570 l 257
 195 570 l 257
 183 442 l 257
 196 445 211 447 228 447 c 257
 228 324 l 257
 194 321 168 303 160 286 c 257
 45 354 l 257
282 0 m 257
 282 126 l 257
 331 135 362 174 362 224 c 256
 362 280 320 319 282 324 c 257
 282 447 l 257
 425 444 490 333 490 223 c 256
 490 82 387 2 282 0 c 257
30 176 m 257
 151 199 l 257
 153 153 208 129 225 129 c 257
 225 -1 l 257
 127 -1 30 85 30 176 c 257
EndSplineSet
EndChar

StartChar: fl
Encoding: 328 64258 165
GlifName: fl
Width: 483
VWidth: 0
GlyphClass: 2
Flags: W
LayerCount: 2
Back
Fore
SplineSet
26 400 m 257
 26 516 l 257
 89 516 l 257
 89 552 l 258
 89 597 140 695 243 696 c 258
 457 696 l 257
 457 0 l 257
 331 0 l 257
 331 579 l 257
 244 579 l 258
 216 578 211 555 211 552 c 258
 211 515 l 257
 277 516 l 257
 277 400 l 257
 211 400 l 257
 211 0 l 257
 89 0 l 257
 89 400 l 257
 26 400 l 257
EndSplineSet
EndChar

StartChar: florin
Encoding: 329 402 166
GlifName: florin
Width: 382
VWidth: 0
GlyphClass: 2
Flags: W
LayerCount: 2
Back
Fore
SplineSet
26 -168 m 257
 53 -63 l 257
 108 -63 l 258
 136 -62 141 -39 141 -36 c 258
 141 400 l 257
 78 400 l 257
 78 516 l 257
 141 516 l 257
 141 552 l 258
 141 597 192 695 295 696 c 258
 356 696 l 257
 329 579 l 257
 296 579 l 258
 268 578 263 555 263 552 c 258
 263 515 l 257
 329 516 l 257
 329 400 l 257
 263 400 l 257
 263 -30 l 258
 263 -92 221 -168 109 -168 c 258
 26 -168 l 257
EndSplineSet
EndChar

StartChar: four
Encoding: 52 52 167
GlifName: four
Width: 491
VWidth: 0
GlyphClass: 2
Flags: W
LayerCount: 2
Back
Fore
SplineSet
20 142 m 257
 20 272 l 257
 210 598 l 257
 210 346 l 257
 164 272 l 257
 210 272 l 257
 210 142 l 257
 20 142 l 257
267 0 m 257
 267 701 l 257
 407 701 l 257
 407 272 l 257
 461 272 l 257
 461 142 l 257
 407 142 l 257
 407 0 l 257
 267 0 l 257
EndSplineSet
EndChar

StartChar: fraction
Encoding: 330 8260 168
GlifName: fraction
Width: 560
VWidth: 0
GlyphClass: 2
Flags: W
LayerCount: 2
Back
Fore
SplineSet
26 -2 m 257
 458 702 l 257
 534 702 l 257
 109 -2 l 257
 26 -2 l 257
EndSplineSet
EndChar

StartChar: g
Encoding: 103 103 169
GlifName: g
Width: 456
VWidth: 0
GlyphClass: 2
Flags: W
LayerCount: 2
Back
Fore
SplineSet
20 -190.06 m 257
 50.8008 -66.8604 l 257
 248.801 -66.8604 l 257
 282.9 -65.7598 290.601 -38.2598 290.601 -34.96 c 258
 290.601 12.3398 l 257
 276.424 8.796 262.311 7.94043 245.5 7.94043 c 257
 245.5 131.94 l 257
 281.047 131.94 290.601 150.384 290.601 164.94 c 258
 290.601 420.44 l 258
 290.601 425.789 280.997 452.34 245.5 452.34 c 257
 245.5 576.64 l 257
 261.431 576.64 277.353 574.753 290.601 571.14 c 257
 290.601 576.64 l 257
 419.301 576.64 l 257
 419.301 -34.96 l 258
 419.301 -82.2598 364.301 -188.96 251 -190.06 c 257
 20 -190.06 l 257
29.9004 161.94 m 258
 29.9004 424.84 l 257
 31.0473 475.322 86.1908 576.64 202.601 576.64 c 257
 202.601 452.34 l 257
 166.155 452.34 156.4 426.833 156.4 421.54 c 258
 156.4 163.04 l 258
 156.4 149.766 167.198 132.24 202.601 132.24 c 257
 202.601 7.94043 l 257
 85.12 7.94043 29.9004 112.515 29.9004 161.94 c 258
EndSplineSet
EndChar

StartChar: germandbls
Encoding: 223 223 171
GlifName: germandbls
Width: 522
VWidth: 0
GlyphClass: 2
Flags: W
LayerCount: 2
Back
Fore
SplineSet
26 0 m 257
 26 457 l 258
 27 531 16 705 226 705 c 256
 396 705 406 575 406 518 c 258
 406 405 l 257
 342 406 l 257
 308 400 305 368 305 361 c 256
 305 349 310 326 391 299 c 256
 441 282 496 243 496 160 c 256
 496 57 420 0 327 0 c 258
 199 0 l 257
 199 109 l 257
 327 109 l 258
 342 110 379 120 379 153 c 256
 379 198 331 200 276 228 c 256
 228 252 191 287 191 371 c 256
 191 446 244 489 294 507 c 257
 294 519 l 258
 294 572 259 586 225 586 c 256
 174 586 155 554 155 498 c 258
 155 0 l 257
 26 0 l 257
EndSplineSet
EndChar

StartChar: grave
Encoding: 96 96 172
GlifName: grave
Width: 346
VWidth: 0
GlyphClass: 2
Flags: W
LayerCount: 2
Back
Fore
SplineSet
42 757 m 257
 169 757 l 257
 206 605 l 257
 115 605 l 257
 42 757 l 257
EndSplineSet
EndChar

StartChar: greater
Encoding: 62 62 173
GlifName: greater
Width: 414
VWidth: 0
GlyphClass: 2
Flags: W
LayerCount: 2
Back
Fore
SplineSet
30 79 m 257
 30 206 l 257
 206 292 l 257
 30 370 l 257
 30 500 l 257
 384 322 l 257
 384 258 l 257
 30 79 l 257
EndSplineSet
EndChar

StartChar: greaterequal
Encoding: 331 8805 174
GlifName: greaterequal
Width: 474
VWidth: 0
GlyphClass: 2
Flags: W
LayerCount: 2
Back
Fore
SplineSet
30 154 m 257
 30 281 l 257
 248 361 l 257
 30 441 l 257
 30 568 l 257
 444 390 l 257
 444 332 l 257
 30 154 l 257
30 0 m 257
 30 107 l 257
 444 107 l 257
 444 0 l 257
 30 0 l 257
EndSplineSet
EndChar

StartChar: guillemotleft
Encoding: 332 171 175
GlifName: guillemotleft
Width: 457
VWidth: 0
GlyphClass: 2
Flags: W
LayerCount: 2
Back
Fore
SplineSet
20 259 m 257
 20 321 l 257
 231 477 l 257
 231 352 l 257
 142 292 l 257
 231 224 l 257
 231 102 l 257
 20 259 l 257
231 259 m 257
 231 321 l 257
 442 477 l 257
 442 352 l 257
 353 292 l 257
 442 224 l 257
 442 102 l 257
 231 259 l 257
EndSplineSet
EndChar

StartChar: guillemotright
Encoding: 333 187 176
GlifName: guillemotright
Width: 457
VWidth: 0
GlyphClass: 2
Flags: W
LayerCount: 2
Back
Fore
SplineSet
15 102 m 257
 15 224 l 257
 104 292 l 257
 15 352 l 257
 15 477 l 257
 226 321 l 257
 226 259 l 257
 15 102 l 257
226 102 m 257
 226 224 l 257
 315 292 l 257
 226 352 l 257
 226 477 l 257
 437 321 l 257
 437 259 l 257
 226 102 l 257
EndSplineSet
EndChar

StartChar: guilsinglleft
Encoding: 334 8249 177
GlifName: guilsinglleft
Width: 338
VWidth: 0
GlyphClass: 2
Flags: W
LayerCount: 2
Back
Fore
SplineSet
26 292 m 257
 157 500 l 257
 312 500 l 257
 181 292 l 257
 312 79 l 257
 157 79 l 257
 26 292 l 257
EndSplineSet
EndChar

StartChar: guilsinglright
Encoding: 335 8250 178
GlifName: guilsinglright
Width: 338
VWidth: 0
GlyphClass: 2
Flags: W
LayerCount: 2
Back
Fore
SplineSet
26 79 m 257
 157 292 l 257
 26 500 l 257
 181 500 l 257
 312 292 l 257
 181 79 l 257
 26 79 l 257
EndSplineSet
EndChar

StartChar: h
Encoding: 104 104 179
GlifName: h
Width: 473
VWidth: 0
GlyphClass: 2
Flags: W
LayerCount: 2
Back
Fore
SplineSet
41.5 -8.05957 m 257
 41.5 715.64 l 257
 166.9 715.64 l 257
 166.9 546.34 l 257
 181.363 551.164 202.632 552.94 220.8 552.94 c 257
 220.8 429.74 l 257
 184.085 429.74 168 397.308 168 392.34 c 258
 168 -8.05957 l 257
 41.5 -8.05957 l 257
270.3 429.74 m 257
 270.3 552.94 l 257
 378.989 552.94 443 477.822 443 402.24 c 258
 443 -8.05957 l 257
 317.6 -8.05957 l 257
 317.6 392.34 l 258
 317.6 396.37 309.286 429.74 270.3 429.74 c 257
EndSplineSet
EndChar

StartChar: hyphen
Encoding: 45 45 181
GlifName: hyphen
Width: 416
VWidth: 0
GlyphClass: 2
Flags: W
LayerCount: 2
Back
Fore
SplineSet
50 230 m 257
 50 357 l 257
 366 357 l 257
 366 230 l 257
 50 230 l 257
EndSplineSet
EndChar

StartChar: i
Encoding: 105 105 182
GlifName: i
Width: 245
VWidth: 0
GlyphClass: 2
Flags: W
LayerCount: 2
Back
Fore
SplineSet
50.4307 650.694 m 256
 50.4307 690.295 83.1006 722.966 122.7 722.966 c 256
 162.3 722.966 194.97 690.295 194.97 650.694 c 256
 194.97 612.085 162.3 579.415 122.7 579.415 c 256
 83.1006 579.415 50.4307 612.085 50.4307 650.694 c 256
56.7002 -0.360352 m 257
 56.7002 540.24 l 257
 190.9 540.24 l 257
 190.9 -0.360352 l 257
 56.7002 -0.360352 l 257
EndSplineSet
EndChar

StartChar: infinity
Encoding: 338 8734 188
GlifName: infinity
Width: 798
VWidth: 0
GlyphClass: 2
Flags: W
LayerCount: 2
Back
Fore
SplineSet
235 0 m 257
 235 118 l 257
 253.105 118 263.5 121.707 270 131 c 258
 335.758 262.273 l 257
 272 387 l 258
 265.303 395.183 253.957 399 235 399 c 257
 235 517 l 257
 305.629 517 355.667 482.504 377 442.423 c 258
 401.5 393.513 l 257
 426 442.423 l 258
 447.323 482.486 497.379 517 568 517 c 257
 568 399 l 257
 549.086 399 537.69 395.174 531 387 c 258
 467.242 262.273 l 257
 533 131 l 258
 539.502 121.704 549.864 118 568 118 c 257
 568 0 l 257
 500.381 0 457.507 33.2871 432 74 c 257
 401.5 133.666 l 257
 371 74 l 257
 345.505 33.3056 302.607 0 235 0 c 257
194 0 m 257
 82.4842 0 30 94.1756 30 142 c 258
 30 377 l 258
 30 425.752 83.5188 517 194 517 c 257
 194 399 l 257
 158.092 399 150 377.836 150 364 c 258
 150 155 l 258
 150 132.443 160.637 118 194 118 c 257
 194 0 l 257
609 0 m 257
 609 118 l 257
 643.125 118 651 138.105 651 153 c 258
 651 364 l 258
 651 384.592 642.243 399 609 399 c 257
 609 517 l 257
 715.598 517 768 425.843 768 377 c 258
 768 142 l 258
 768 93.1498 716.64 0 609 0 c 257
EndSplineSet
EndChar

StartChar: integral
Encoding: 339 8747 189
GlifName: integral
Width: 341
VWidth: 0
GlyphClass: 2
Flags: W
LayerCount: 2
Back
Fore
SplineSet
30 -140 m 257
 35 -140 127 -116 127 -3 c 257
 127 625 l 258
 127 769 251 819 311 819 c 257
 311 754 l 257
 306 754 216 744 216 625 c 258
 216 -3 l 258
 216 -147 90 -205 30 -205 c 257
 30 -140 l 257
EndSplineSet
EndChar

StartChar: j
Encoding: 106 106 191
GlifName: j
Width: 242
VWidth: 0
GlyphClass: 2
Flags: W
LayerCount: 2
Back
Fore
SplineSet
53.7998 540 m 257
 188 540 l 257
 187.9 -42.0596 l 258
 187.892 -93.7598 132.9 -199.36 20.7002 -199.36 c 258
 -42 -199.36 l 257
 -12.2998 -70.6602 l 257
 17.4004 -70.6602 l 257
 48.2002 -69.5596 53.6998 -44.2598 53.7002 -42.0596 c 258
 53.7998 540 l 257
47.4307 650.694 m 256
 47.4307 690.295 80.1006 722.966 119.7 722.966 c 256
 159.3 722.966 191.97 690.295 191.97 650.694 c 256
 191.97 612.085 159.3 579.415 119.7 579.415 c 256
 80.1006 579.415 47.4307 612.085 47.4307 650.694 c 256
EndSplineSet
EndChar

StartChar: k
Encoding: 107 107 192
GlifName: k
Width: 500
VWidth: 0
GlyphClass: 2
Flags: W
LayerCount: 2
Back
Fore
SplineSet
42 0 m 257
 42 716 l 257
 179.5 716 l 257
 179.5 0 l 257
 42 0 l 257
208.801 287.3 m 257
 332 570 l 257
 478.301 570 l 257
 351.801 287.3 l 257
 480 -0.110352 l 257
 334.8 -0.110352 l 257
 208.801 287.3 l 257
EndSplineSet
EndChar

StartChar: l
Encoding: 108 108 193
GlifName: l
Width: 228
VWidth: 0
GlyphClass: 2
Flags: W
LayerCount: 2
Back
Fore
SplineSet
41.9004 0 m 257
 41.9004 716 l 257
 186 716 l 257
 186 0 l 257
 41.9004 0 l 257
EndSplineSet
EndChar

StartChar: less
Encoding: 60 60 196
GlifName: less
Width: 414
VWidth: 0
GlyphClass: 2
Flags: W
LayerCount: 2
Back
Fore
SplineSet
30 258 m 257
 30 322 l 257
 384 500 l 257
 384 370 l 257
 208 292 l 257
 384 206 l 257
 384 79 l 257
 30 258 l 257
EndSplineSet
EndChar

StartChar: lessequal
Encoding: 343 8804 197
GlifName: lessequal
Width: 474
VWidth: 0
GlyphClass: 2
Flags: W
LayerCount: 2
Back
Fore
SplineSet
444 153 m 257
 30 331 l 257
 30 389 l 257
 444 567 l 257
 444 440 l 257
 226 360 l 257
 444 280 l 257
 444 153 l 257
30 -1 m 257
 30 106 l 257
 444 106 l 257
 444 -1 l 257
 30 -1 l 257
EndSplineSet
EndChar

StartChar: logicalnot
Encoding: 344 172 198
GlifName: logicalnot
Width: 540
VWidth: 0
GlyphClass: 2
Flags: W
LayerCount: 2
Back
Fore
SplineSet
40 327 m 257
 40 442 l 257
 490 442 l 257
 490 208 l 257
 372 208 l 257
 372 327 l 257
 40 327 l 257
EndSplineSet
EndChar

StartChar: lozenge
Encoding: 345 9674 199
GlifName: lozenge
Width: 414
VWidth: 0
GlyphClass: 2
Flags: W
LayerCount: 2
Back
Fore
SplineSet
-3 352 m 257
 175 706 l 257
 239 706 l 257
 418 352 l 257
 239 -2 l 257
 175 -2 l 257
 -3 352 l 257
127 352 m 257
 205 176 l 257
 291 352 l 257
 205 528 l 257
 127 352 l 257
EndSplineSet
EndChar

StartChar: lslash
Encoding: 346 322 200
GlifName: lslash
Width: 424
VWidth: 0
GlyphClass: 2
Flags: W
LayerCount: 2
Back
Fore
SplineSet
40 302 m 257
 340 536 l 257
 412 443 l 257
 112 209 l 257
 40 302 l 257
158.9 -9.11035 m 257
 158.9 706.69 l 257
 303 706.69 l 257
 303 -9.11035 l 257
 158.9 -9.11035 l 257
EndSplineSet
EndChar

StartChar: m
Encoding: 109 109 201
GlifName: m
Width: 762
VWidth: 0
GlyphClass: 2
Flags: W
LayerCount: 2
Back
Fore
SplineSet
37.5996 -0.160156 m 257
 37.5996 414.54 l 258
 37.5996 471.457 99.7043 570.74 219.1 570.74 c 257
 219.1 437.64 l 257
 183.823 437.64 174 415.009 174 398.04 c 258
 174 -0.160156 l 257
 37.5996 -0.160156 l 257
265.3 437.64 m 257
 265.3 570.74 l 257
 315.703 570.74 351.215 556.925 380.8 534.44 c 257
 410.305 558.044 445.957 570.74 496.3 570.74 c 257
 496.3 437.64 l 257
 460.079 437.64 449 418.99 449 398.04 c 258
 449 -0.160156 l 257
 312.6 -0.160156 l 257
 312.6 398.04 l 258
 312.6 420.381 300.588 437.64 265.3 437.64 c 257
541.399 437.64 m 257
 541.399 570.74 l 257
 661.863 570.74 724 468.208 724 414.54 c 258
 724 -0.160156 l 257
 587.6 -0.160156 l 257
 587.6 398.04 l 258
 587.6 421.85 576.728 437.64 541.399 437.64 c 257
EndSplineSet
EndChar

StartChar: mnyk
Encoding: 349 -1 204
GlifName: mnyk
Width: 952
VWidth: 0
GlyphClass: 2
Flags: W
LayerCount: 2
Back
Fore
SplineSet
692.6 606 m 256
 692.6 669.2 743.8 720.4 807 720.4 c 256
 870.2 720.4 921.4 669.2 921.4 606 c 256
 921.4 542.8 870.2 491.6 807 491.6 c 256
 743.8 491.6 692.6 542.8 692.6 606 c 256
30.4004 401 m 256
 30.4004 574.8 171.2 715.6 345 715.6 c 256
 518.8 715.6 659.6 574.8 659.6 401 c 256
 659.6 227.2 518.8 86.4004 345 86.4004 c 256
 171.2 86.4004 30.4004 227.2 30.4004 401 c 256
EndSplineSet
EndChar

StartChar: multiply
Encoding: 215 215 205
GlifName: multiply
Width: 697
VWidth: 0
GlyphClass: 2
Flags: W
LayerCount: 2
Back
Fore
SplineSet
190 168 m 257
 101 257 l 257
 260 417 l 257
 100 578 l 257
 189 667 l 257
 349 507 l 257
 508 666 l 257
 597 577 l 257
 438 418 l 257
 597 259 l 257
 507 170 l 257
 349 328 l 257
 190 168 l 257
EndSplineSet
EndChar

StartChar: n
Encoding: 110 110 206
GlifName: n
Width: 487
VWidth: 0
GlyphClass: 2
Flags: W
LayerCount: 2
Back
Fore
SplineSet
37.5996 -0.160156 m 257
 37.5996 414.54 l 258
 37.5996 470.753 99.2895 570.74 220.2 570.74 c 257
 220.2 437.64 l 257
 184.278 437.64 174 416.445 174 399.04 c 258
 174 -0.160156 l 257
 37.5996 -0.160156 l 257
266.399 437.64 m 257
 266.399 570.74 l 257
 387.308 570.74 449 467.506 449 414.54 c 258
 449 -0.160156 l 257
 312.6 -0.160156 l 257
 312.6 399.04 l 258
 312.6 417.827 301.348 437.64 266.399 437.64 c 257
EndSplineSet
EndChar

StartChar: nine
Encoding: 57 57 209
GlifName: nine
Width: 505
VWidth: 0
GlyphClass: 2
Flags: W
LayerCount: 2
Back
Fore
SplineSet
273 -1 m 257
 273 129 l 257
 346 134 340 237 340 287 c 257
 323 279 293 274 273 274 c 257
 273 320 273 404 273 404 c 257
 311.04 414.017 330.151 450.662 330.151 487.243 c 256
 330.151 523.708 311.161 560.107 273 570 c 257
 273 700 l 257
 448 700 475 513 475 341 c 256
 475 224 467 -1 273 -1 c 257
219 274 m 257
 95 274 30 370 30 488 c 256
 30 613 118 700 219 700 c 257
 219 570 l 257
 180.839 560.107 161.849 523.707 161.849 487.243 c 256
 161.849 450.662 180.96 414.017 219 404 c 257
 219 274 l 257
53.7422 105.465 m 257
 160.037 177.183 l 257
 171.423 147.665 197.665 130 219 129 c 257
 219 -1 l 257
 137.914 -1 83.668 45.3018 53.7422 105.465 c 257
EndSplineSet
EndChar

StartChar: numbersign
Encoding: 35 35 212
GlifName: numbersign
Width: 753
VWidth: 0
GlyphClass: 2
Flags: W
LayerCount: 2
Back
Fore
SplineSet
27.6387 176 m 257
 52.6387 297 l 257
 189.639 297 l 257
 207.639 404 l 257
 61.6387 404 l 257
 83.6387 525 l 257
 229.639 525 l 257
 256.639 682 l 257
 377.639 682 l 257
 349.639 524 l 257
 455.639 524 l 257
 482.639 682 l 257
 603.639 682 l 257
 575.639 524 l 257
 713.639 524 l 257
 694.639 403 l 257
 554.639 404 l 257
 535.639 296 l 257
 678.639 296 l 257
 660.639 175 l 257
 514.639 176 l 257
 487.639 22 l 257
 367.639 22 l 257
 393.639 176 l 257
 288.639 176 l 257
 261.639 22 l 257
 140.639 22 l 257
 167.639 176 l 257
 27.6387 176 l 257
309.639 297 m 257
 415.639 296 l 257
 433.639 404 l 257
 328.639 404 l 257
 309.639 297 l 257
EndSplineSet
EndChar

StartChar: o
Encoding: 111 111 213
GlifName: o
Width: 476
VWidth: 0
GlyphClass: 2
Flags: W
LayerCount: 2
Back
Fore
SplineSet
38 155.14 m 258
 37.5996 416 l 258
 37.5996 469.627 96.4707 570 218 570 c 257
 218 440.2 l 257
 178.502 440.2 169.6 416.921 169.6 401.7 c 258
 170 169.44 l 258
 170.043 144.627 181.7 128.74 218.4 128.74 c 257
 218.4 -1.05957 l 257
 95.7329 -1.05957 38.0807 102.533 38 155.14 c 258
263.5 -1.05957 m 257
 263.5 128.74 l 257
 301.037 128.74 309.727 151.725 309.7 167.24 c 258
 309.3 401.7 l 258
 309.3 424.352 299.667 440.2 263.1 440.2 c 257
 263.1 570 l 257
 380.357 570 438 469.728 438 416 c 258
 438.4 155.14 l 258
 438.483 101.404 381.904 -1.05957 263.5 -1.05957 c 257
EndSplineSet
EndChar

StartChar: oe
Encoding: 353 339 217
GlifName: oe
Width: 671
VWidth: 0
GlyphClass: 2
Flags: W
LayerCount: 2
Back
Fore
SplineSet
334 34 m 257
 308.056 12.3804 282.038 -1 231 -1 c 257
 231 113 l 257
 264.103 113 275 130.079 275 150 c 258
 275 362 l 258
 275 386.542 263.117 398 231 398 c 257
 231 516 l 257
 279.845 516 307.128 503.546 332 483 c 257
 357.637 503.296 389.656 516 432 516 c 257
 432 401 l 257
 404.374 401 387.356 381.22 387 363 c 257
 387 324 l 257
 528 324 l 257
 528 359 l 258
 528 386.847 503.234 401 481 401 c 257
 481 516 l 257
 554.935 516 642 453.491 642 378 c 258
 642 208 l 257
 387 208 l 257
 387 159 l 258
 387 126.256 416.877 108 453 108 c 256
 506.201 108 535.299 116.973 544 157 c 257
 643 120 l 257
 623.191 39.5283 549.206 0 457 0 c 256
 399 0 364.406 15.3945 334 34 c 257
26 141 m 258
 26 376 l 258
 26 421 77 516 190 516 c 257
 190 398 l 257
 155.404 398 146 383.484 146 363 c 258
 146 152 l 258
 146 129.32 157.556 113 190 113 c 257
 190 -1 l 257
 76 -1 26 97 26 141 c 258
EndSplineSet
EndChar

StartChar: ogonek
Encoding: 354 731 218
GlifName: ogonek
Width: 219
VWidth: 0
GlyphClass: 2
Flags: W
LayerCount: 2
Back
Fore
SplineSet
106 -199 m 257
 -21 -199 -62 -116 -62 -40 c 257
 30 -40 l 257
 30 -95 70 -108 106 -108 c 257
 106 -199 l 257
EndSplineSet
EndChar

StartChar: one
Encoding: 49 49 222
GlifName: one
Width: 277
VWidth: 0
GlyphClass: 2
Flags: W
LayerCount: 2
Back
Fore
SplineSet
30 514 m 257
 30 640 l 257
 106 700 l 257
 247 700 l 257
 247 0 l 257
 106 0 l 257
 106 514 l 257
 30 514 l 257
EndSplineSet
EndChar

StartChar: onehalf
Encoding: 189 189 223
GlifName: onehalf
Width: 582
VWidth: 0
GlyphClass: 2
Flags: W
LayerCount: 2
Back
Fore
SplineSet
306.25 0 m 257
 306.25 75 l 257
 542.25 75 l 257
 542.25 0 l 257
 306.25 0 l 257
0 0 m 257
 432 700 l 257
 508 700 l 257
 83 0 l 257
 0 0 l 257
49.25 607 m 257
 49.25 670 l 257
 87.25 700 l 257
 167.75 700 l 257
 167.75 350 l 257
 87.25 350 l 257
 87.25 607 l 257
 49.25 607 l 257
306 248 m 257
 306 308.5 362.25 350 411.25 350 c 257
 411.25 273 l 257
 399.75 272 377 263.5 377 235 c 257
 306 248 l 257
306.25 101 m 257
 306.25 141.616 347.755 163.469 389.259 181.378 c 256
 430.764 199.287 472.268 213.252 472.268 238.094 c 256
 472.268 264.945 453.66 272 438.75 273 c 257
 438.75 350 l 257
 507.997 350 552.25 307.308 552.25 238 c 256
 552.25 188.987 514.865 162.685 477.547 144.662 c 256
 440.229 126.64 402.979 116.897 403.25 101 c 257
 306.25 101 l 257
EndSplineSet
EndChar

StartChar: onequarter
Encoding: 357 188 224
GlifName: onequarter
Width: 508
VWidth: 0
GlyphClass: 2
Flags: W
LayerCount: 2
Back
Fore
SplineSet
372 0 m 257
 372 350.5 l 257
 452 350.5 l 257
 452 131 l 257
 479 131 l 257
 479 61 l 257
 452 61 l 257
 452 0 l 257
 372 0 l 257
49.25 607 m 257
 49.25 670 l 257
 87.25 700 l 257
 167.75 700 l 257
 167.75 350 l 257
 87.25 350 l 257
 87.25 607 l 257
 49.25 607 l 257
235.5 61 m 257
 235.5 131 l 257
 343.5 319 l 257
 343.5 175 l 257
 320.5 131 l 257
 343.5 131 l 257
 343.5 61 l 257
 235.5 61 l 257
0 0 m 257
 432 700 l 257
 508 700 l 257
 83 0 l 257
 0 0 l 257
EndSplineSet
EndChar

StartChar: onesuperior
Encoding: 358 185 225
GlifName: uni00B_9
Width: 153
VWidth: 0
GlyphClass: 2
Flags: W
LayerCount: 2
Back
Fore
SplineSet
11.1504 615.525 m 257
 11.1504 672.225 l 257
 45.3496 699.225 l 257
 108.8 699.225 l 257
 108.8 384.225 l 257
 45.3496 384.225 l 257
 45.3496 615.525 l 257
 11.1504 615.525 l 257
EndSplineSet
EndChar

StartChar: ordfeminine
Encoding: 359 170 226
GlifName: ordfeminine
Width: 248
VWidth: 0
GlyphClass: 2
Flags: W
LayerCount: 2
Back
Fore
SplineSet
19 325 m 257
 19 393 l 257
 225 393 l 257
 225 325 l 257
 19 325 l 257
EndSplineSet
Refer: 93 97 N 0.5 0 0 0.5 1.8999 418.895 2
EndChar

StartChar: ordmasculine
Encoding: 360 186 227
GlifName: ordmasculine
Width: 230
VWidth: 0
GlyphClass: 2
Flags: W
LayerCount: 2
Back
Fore
SplineSet
26 361 m 257
 26 432 l 257
 204 432 l 257
 204 361 l 257
 26 361 l 257
EndSplineSet
Refer: 213 111 N 0.45 0 0 0.45 5.01011 450.81 2
EndChar

StartChar: oslash
Encoding: 361 248 228
GlifName: oslash
Width: 498
VWidth: 0
GlyphClass: 2
Flags: W
LayerCount: 2
Back
Fore
SplineSet
0 82 m 257
 67 143 l 257
 67 153 l 256
 67 376 l 258
 67 424.752 120.519 516 231 516 c 257
 231 398 l 257
 195.092 398 187 376.836 187 363 c 258
 187 253 l 257
 314 370 l 257
 311.561 387.072 301.222 398 272 398 c 257
 272 516 l 257
 334.316 516 376.384 488.356 402 451 c 257
 445 490 l 257
 498 430 l 257
 431 369 l 257
 431 358 l 256
 431 141 l 258
 431 92.1498 379.64 -1 272 -1 c 257
 272 117 l 257
 306.125 117 314 137.897 314 152 c 258
 314 261 l 257
 188 145 l 257
 190.4 127 202.787 117 231 117 c 257
 231 -1 l 257
 166.757 -1 124.656 26.7481 98 63 c 257
 53 22 l 257
 0 82 l 257
EndSplineSet
EndChar

StartChar: p
Encoding: 112 112 230
GlifName: p
Width: 481
VWidth: 0
GlyphClass: 2
Flags: W
LayerCount: 2
Back
Fore
SplineSet
229.5 0 m 257
 229.5 129.801 l 257
 263.6 129.801 l 258
 298.8 129.801 304.3 155.101 304.3 157.301 c 257
 304.3 412.699 l 257
 304.3 414.899 298.8 440.199 263.6 440.199 c 258
 229.5 440.199 l 257
 229.5 570 l 257
 263.6 570 l 258
 381.3 570 435.595 464.498 435.5 415 c 258
 435.5 155.201 l 258
 435.595 105.703 381.3 0 263.6 0 c 258
 229.5 0 l 257
38.5 -199 m 257
 38.5 570 l 257
 179.5 570 l 257
 179.5 -199 l 257
 38.5 -199 l 257
EndSplineSet
EndChar

StartChar: paragraph
Encoding: 363 182 231
GlifName: paragraph
Width: 481
VWidth: 0
GlyphClass: 2
Flags: W
LayerCount: 2
Back
Fore
SplineSet
35 517 m 256
 35 617 102 705 204 705 c 256
 232 705 259 705 287 705 c 257
 287 -5 l 257
 204 -5 l 257
 204 329 l 257
 100 329 35 403 35 517 c 256
344 -5 m 257
 344 705 l 257
 427 705 l 257
 427 -5 l 257
 344 -5 l 257
EndSplineSet
EndChar

StartChar: parenleft
Encoding: 40 40 232
GlifName: parenleft
Width: 223
VWidth: 0
GlyphClass: 2
Flags: W
LayerCount: 2
Back
Fore
SplineSet
40 189 m 257
 40 510 l 257
 40 652 103 696 202 735 c 257
 203 648 l 257
 164 625 144 593 143 521 c 258
 143 208 l 258
 143 206 143 204 143 202 c 256
 143 104 168 73 203 51 c 257
 203 -37 l 257
 61 22 40 93 40 189 c 257
EndSplineSet
EndChar

StartChar: parenright
Encoding: 41 41 233
GlifName: parenright
Width: 223
VWidth: 0
GlyphClass: 2
Flags: W
LayerCount: 2
Back
Fore
SplineSet
20 -37 m 257
 20 51 l 257
 55 73 80 104 80 202 c 258
 80 521 l 257
 79 593 59 625 20 648 c 257
 21 735 l 257
 120 696 183 652 183 510 c 257
 183 189 l 257
 183 93 162 22 20 -37 c 257
EndSplineSet
EndChar

StartChar: partialdiff
Encoding: 364 8706 234
GlifName: partialdiff
Width: 420
VWidth: 0
GlyphClass: 2
Flags: W
LayerCount: 2
Back
Fore
SplineSet
28 141 m 258
 28 376 l 258
 28 424.752 81.5188 516 192 516 c 257
 192 398 l 257
 156.092 398 148 370.79 148 353 c 258
 148 154 l 258
 148 131.443 158.637 117 192 117 c 257
 192 -1 l 257
 80.4842 -1 28 93.1756 28 141 c 258
70 647 m 257
 70 714 l 257
 290.916 714 392 629.789 392 442 c 258
 392 141 l 258
 392 92.1498 340.64 -1 233 -1 c 257
 233 117 l 257
 267.125 117 275 139.882 275 157 c 258
 275 353 l 258
 275 379.475 266.243 398 233 398 c 257
 233 516 l 257
 247.851 516 260.062 515.529 273 512 c 257
 273 594 182 647 70 647 c 257
EndSplineSet
EndChar

StartChar: percent
Encoding: 37 37 235
GlifName: P_ercent_sign
Width: 629
VWidth: 0
GlyphClass: 2
Flags: W
LayerCount: 2
Back
Fore
SplineSet
26 575 m 256
 26 635 74 683 134 683 c 256
 194 683 242 635 242 575 c 256
 242 515 194 467 134 467 c 256
 74 467 26 515 26 575 c 256
160 -23 m 257
 335 716 l 257
 461 716 l 257
 287 -23 l 257
 160 -23 l 257
387 117 m 256
 387 177 435 225 495 225 c 256
 555 225 603 177 603 117 c 256
 603 57 555 9 495 9 c 256
 435 9 387 57 387 117 c 256
EndSplineSet
EndChar

StartChar: period
Encoding: 46 46 236
GlifName: period
Width: 210
VWidth: 0
GlyphClass: 2
Flags: W
LayerCount: 2
Back
Fore
SplineSet
30 70 m 256
 30 112 63 146 105 146 c 256
 147 146 180 112 180 70 c 256
 180 28 147 -5 105 -5 c 256
 63 -5 30 28 30 70 c 256
EndSplineSet
EndChar

StartChar: perthousand
Encoding: 365 8240 238
GlifName: perthousand
Width: 897
VWidth: 0
GlyphClass: 2
Flags: W
LayerCount: 2
Back
Fore
SplineSet
121.75 352 m 257
 78.75 352 15.75 380.5 15.75 527 c 256
 15.75 673.5 78.75 702 121.75 702 c 257
 121.75 625 l 257
 94.25 618.5 93.25 578 93.25 532.5 c 258
 93.25 521.5 l 258
 93.25 476 94.25 435.5 121.75 429 c 257
 121.75 352 l 257
149.25 352 m 257
 149.25 429 l 257
 176.75 435.5 177.75 476 177.75 521.5 c 258
 177.75 532.5 l 258
 177.75 578 176.75 618.5 149.25 625 c 257
 149.25 702 l 257
 192.25 702 255.25 673.5 255.25 527 c 256
 255.25 380.5 192.25 352 149.25 352 c 257
488.75 0 m 257
 445.75 0 382.75 28.5 382.75 175 c 256
 382.75 321.5 445.75 350 488.75 350 c 257
 488.75 273 l 257
 461.25 266.5 460.25 226 460.25 180.5 c 258
 460.25 169.5 l 258
 460.25 124 461.25 83.5 488.75 77 c 257
 488.75 0 l 257
516.25 0 m 257
 516.25 77 l 257
 543.75 83.5 544.75 124 544.75 169.5 c 258
 544.75 180.5 l 258
 544.75 226 543.75 266.5 516.25 273 c 257
 516.25 350 l 257
 559.25 350 622.25 321.5 622.25 175 c 256
 622.25 28.5 559.25 0 516.25 0 c 257
746.75 0 m 257
 703.75 0 640.75 28.5 640.75 175 c 256
 640.75 321.5 703.75 350 746.75 350 c 257
 746.75 273 l 257
 719.25 266.5 718.25 226 718.25 180.5 c 258
 718.25 169.5 l 258
 718.25 124 719.25 83.5 746.75 77 c 257
 746.75 0 l 257
774.25 0 m 257
 774.25 77 l 257
 801.75 83.5 802.75 124 802.75 169.5 c 258
 802.75 180.5 l 258
 802.75 226 801.75 266.5 774.25 273 c 257
 774.25 350 l 257
 817.25 350 880.25 321.5 880.25 175 c 256
 880.25 28.5 817.25 0 774.25 0 c 257
65 0 m 257
 497 700 l 257
 573 700 l 257
 148 0 l 257
 65 0 l 257
EndSplineSet
EndChar

StartChar: pi
Encoding: 366 960 239
GlifName: pi
Width: 533
VWidth: 0
GlyphClass: 2
Flags: W
LayerCount: 2
Back
Fore
SplineSet
30 389 m 257
 30 519 l 257
 503 519 l 257
 503 389 l 257
 446 389 l 257
 446 142 l 258
 446 128.337 453.559 108 489 108 c 257
 489 -4 l 257
 390.192 -4 327 54.2891 327 133 c 258
 327 389 l 257
 209 389 l 257
 209 0 l 257
 87 0 l 257
 87 389 l 257
 30 389 l 257
EndSplineSet
EndChar

StartChar: plus
Encoding: 43 43 240
GlifName: plus
Width: 405
VWidth: 0
GlyphClass: 2
Flags: W
LayerCount: 2
Back
Fore
SplineSet
15 230 m 257
 15 357 l 257
 138 357 l 257
 138 498 l 257
 265 498 l 257
 265 357 l 257
 390 357 l 257
 390 230 l 257
 265 230 l 257
 265 87 l 257
 138 87 l 257
 138 230 l 257
 15 230 l 257
EndSplineSet
EndChar

StartChar: plusminus
Encoding: 367 177 241
GlifName: plusminus
Width: 427
VWidth: 0
GlyphClass: 2
Flags: W
LayerCount: 2
Back
Fore
SplineSet
26 40 m 257
 26 167 l 257
 402 167 l 257
 402 40 l 257
 26 40 l 257
EndSplineSet
Refer: 240 43 N 1 0 0 1 10 161 2
EndChar

StartChar: product
Encoding: 368 8719 242
GlifName: product
Width: 534
VWidth: 0
GlyphClass: 2
Flags: W
LayerCount: 2
Back
Fore
SplineSet
30 565 m 257
 30 700 l 257
 504 700 l 257
 504 565 l 257
 461 565 l 257
 461 -140 l 257
 331 -140 l 257
 331 565 l 257
 203 565 l 257
 203 -140 l 257
 73 -140 l 257
 73 565 l 257
 30 565 l 257
EndSplineSet
EndChar

StartChar: q
Encoding: 113 113 243
GlifName: q
Width: 476
VWidth: 0
GlyphClass: 2
Flags: W
LayerCount: 2
Back
Fore
SplineSet
211.9 0 m 258
 94.2002 0 39.9053 105.703 40 155.201 c 258
 40 415 l 258
 39.9053 464.498 94.2002 570 211.9 570 c 258
 246 570 l 257
 246 440.199 l 257
 211.9 440.199 l 258
 176.7 440.199 171.2 414.899 171.2 412.699 c 257
 171.2 157.301 l 257
 171.2 155.101 176.7 129.801 211.9 129.801 c 258
 246 129.801 l 257
 246 0 l 257
 211.9 0 l 258
296 -199 m 257
 296 570 l 257
 437 570 l 257
 437 -199 l 257
 296 -199 l 257
EndSplineSet
EndChar

StartChar: question
Encoding: 63 63 244
GlifName: question
Width: 460
VWidth: 0
GlyphClass: 2
Flags: W
LayerCount: 2
Back
Fore
SplineSet
30 611 m 257
 60 649 110 703 218 703 c 256
 346 703 426 620 430 491 c 257
 430 294.687 263 276 263 276 c 257
 263 166 l 257
 134 166 l 257
 134 386 l 257
 251 388 302 400 302 493 c 256
 302 545 257 575 210 575 c 256
 167 575 133 554 112 526 c 257
 30 611 l 257
122 53 m 256
 122 95 155 129 197 129 c 256
 239 129 273 95 273 53 c 256
 273 11 239 -22 197 -22 c 256
 155 -22 122 11 122 53 c 256
EndSplineSet
EndChar

StartChar: quotedbl
Encoding: 34 34 246
GlifName: quotedbl
Width: 392
VWidth: 0
GlyphClass: 2
Flags: W
LayerCount: 2
Back
Fore
SplineSet
43 465 m 257
 43 736 l 257
 170 736 l 257
 170 465 l 257
 43 465 l 257
223 465 m 257
 223 736 l 257
 350 736 l 257
 350 465 l 257
 223 465 l 257
EndSplineSet
EndChar

StartChar: quotedbl.alt
Encoding: 370 -1 247
GlifName: quotedbl.alt
Width: 359
VWidth: 0
GlyphClass: 2
Flags: W
LayerCount: 2
Back
Fore
SplineSet
26 476 m 257
 26 700 l 257
 153 700 l 257
 153 476 l 257
 26 476 l 257
206 476 m 257
 206 700 l 257
 333 700 l 257
 333 476 l 257
 206 476 l 257
EndSplineSet
EndChar

StartChar: quotesingle
Encoding: 39 39 254
GlifName: quotesingle
Width: 212
VWidth: 0
GlyphClass: 2
Flags: W
LayerCount: 2
Back
Fore
SplineSet
43 465 m 257
 43 736 l 257
 170 736 l 257
 170 465 l 257
 43 465 l 257
EndSplineSet
EndChar

StartChar: r
Encoding: 114 114 255
GlifName: r
Width: 361
VWidth: 0
GlyphClass: 2
Flags: W
LayerCount: 2
Back
Fore
SplineSet
42 0 m 257
 42 570 l 257
 178 570 l 257
 178 507 l 257
 201.101 536.7 254.2 574.59 314.7 574.59 c 258
 351 574.59 l 257
 320.2 441.49 l 257
 246.5 440.39 178.3 371.09 178.3 305.09 c 258
 178.3 -0.00976562 l 257
 42 0 l 257
EndSplineSet
EndChar

StartChar: radical
Encoding: 378 8730 257
GlifName: radical
Width: 609
VWidth: 0
GlyphClass: 2
Flags: HWO
LayerCount: 2
Back
Fore
SplineSet
6 513 m 257
 181 575 l 257
 342 177 l 257
 488 819 l 257
 589 819 l 257
 408 0 l 257
 306 0 l 257
 106 492 l 257
 22 461 l 257
 6 513 l 257
EndSplineSet
EndChar

StartChar: registered
Encoding: 380 174 259
GlifName: registered
Width: 404
VWidth: 0
GlyphClass: 2
Flags: W
LayerCount: 2
Back
Fore
SplineSet
198 511 m 257
 198 547 l 257
 202 547 l 258
 219 547 226 557 226 568 c 256
 226 582 216 591 202 591 c 258
 198 591 l 257
 198 628 l 257
 240 628 262 604 262 570 c 256
 262 551 256 538 243 530 c 257
 253 522 260.965 513.047 262 492 c 258
 265 431 l 257
 230 431 l 257
 227 481 l 258
 225.621 503.977 218 511 198 511 c 257
192 354 m 257
 109.778 355.015 30 432.636 30 525 c 256
 30 650.199 133.423 703 195 703 c 257
 195 662 l 257
 136 662 70 609 70 526 c 256
 71 457 126 399 191 396 c 257
 192 354 l 257
211 354 m 257
 211 396 l 257
 275.7 398.986 334 456.641 334 527 c 256
 334 608 270 662 211 662 c 257
 211 703 l 257
 277 702 374 641 374 528 c 256
 374 424.559 291.107 357.121 211 354 c 257
143 430 m 257
 143 627 l 257
 182 627 l 257
 182 430 l 257
 143 430 l 257
EndSplineSet
EndChar

StartChar: ring
Encoding: 381 730 260
GlifName: ring
Width: 244
VWidth: 0
GlyphClass: 2
Flags: W
LayerCount: 2
Back
Fore
SplineSet
26 526 m 256
 26 579 69 622 122 622 c 256
 175 622 218 579 218 526 c 256
 218 473 175 430 122 430 c 256
 69 430 26 473 26 526 c 256
90 526 m 256
 90 508 104 494 122 494 c 256
 140 494 154 508 154 526 c 256
 154 544 140 558 122 558 c 256
 104 558 90 544 90 526 c 256
EndSplineSet
EndChar

StartChar: s
Encoding: 115 115 261
GlifName: s
Width: 454
VWidth: 0
GlyphClass: 2
Flags: W
LayerCount: 2
Back
Fore
SplineSet
20.4004 149.79 m 257
 143.601 172.89 l 257
 143.601 142.792 172.817 122.149 199.7 121.19 c 257
 199.7 -5.30957 l 257
 71.6772 -5.30957 19.9887 78.0256 20.4004 149.79 c 257
25.9004 414.29 m 256
 25.9004 528.335 135.723 574.89 197.5 574.89 c 257
 197.5 450.79 l 257
 152.196 450.79 149.101 425.382 149.101 414.39 c 256
 149.101 391.862 165.601 359.581 320.7 325.79 c 256
 377.9 314.79 434 267.49 434 176.19 c 256
 434 60.9609 349.341 -5.30957 244.8 -5.30957 c 257
 244.8 121.09 l 257
 263.565 121.09 305.3 132.129 305.3 168.49 c 256
 305.3 217.99 182.101 226.79 119.4 255.39 c 256
 65.5 281.79 25.9004 321.89 25.9004 414.29 c 256
242.601 450.59 m 257
 243.7 574.89 l 257
 350.529 574.89 424.101 491.715 424.101 417.59 c 257
 300.9 396.69 l 257
 300.9 445.65 253.177 450.59 242.601 450.59 c 257
EndSplineSet
EndChar

StartChar: section
Encoding: 167 167 264
GlifName: section
Width: 603
VWidth: 0
GlyphClass: 2
Flags: W
LayerCount: 2
Back
Fore
SplineSet
54 351 m 256
 54 413 82 465 126 499 c 257
 119 519 116 543 116 571 c 256
 116 710 225 759 293 759 c 258
 405 759 l 257
 405 627 l 257
 301 627 l 258
 268 627 247 606 247 576 c 256
 247 555 258 540 274 527 c 257
 274 372 l 257
 261 377 249 381 239 386 c 256
 230 391 221 395 212 400 c 257
 202 392 195 380 195 357 c 256
 195 314 232 290 274 272 c 257
 274 125 l 257
 243 138 209 150 182 166 c 256
 121 202 54 249 54 351 c 256
198 -4 m 257
 302 -4 l 258
 335 -4 356 17 356 47 c 256
 356 68 345 84 328 97 c 257
 328 252 l 257
 341 247 353 242 364 237 c 256
 373 232 382 228 391 223 c 257
 401 231 408 243 408 266 c 256
 408 310 371 333 328 351 c 257
 328 498 l 257
 359 485 393 473 421 457 c 256
 482 421 549 374 549 272 c 256
 549 210 521 158 477 124 c 257
 484 104 487 80 487 52 c 256
 487 -87 378 -136 310 -136 c 258
 198 -136 l 257
 198 -4 l 257
EndSplineSet
EndChar

StartChar: semicolon
Encoding: 59 59 265
GlifName: semicolon
Width: 291
VWidth: 0
GlyphClass: 2
Flags: W
LayerCount: 2
Back
Fore
SplineSet
50 -23 m 257
 87 129 l 257
 214 129 l 257
 177 -23 l 257
 50 -23 l 257
91 360 m 256
 91 402 124 436 166 436 c 256
 208 436 241 402 241 360 c 256
 241 318 208 285 166 285 c 256
 124 285 91 318 91 360 c 256
EndSplineSet
EndChar

StartChar: seven
Encoding: 55 55 266
GlifName: seven
Width: 449
VWidth: 0
GlyphClass: 2
Flags: W
LayerCount: 2
Back
Fore
SplineSet
429 570 m 257
 30 570 l 257
 30 700 l 257
 429 700 l 257
 429 570 l 257
143 0 m 257
 143 198 208 388 276 515 c 257
 419 515 l 257
 337 356 283 174 283 0 c 257
 143 0 l 257
EndSplineSet
EndChar

StartChar: six
Encoding: 54 54 267
GlifName: six
Width: 505
VWidth: 0
GlyphClass: 2
Flags: W
LayerCount: 2
Back
Fore
SplineSet
232 -1 m 257
 57 -1 30 186 30 358 c 256
 30 475 48 700 232 700 c 257
 232 570 l 257
 166 558 165 462 165 412 c 257
 182 420 212 425 232 425 c 257
 232 379 232 295 232 295 c 257
 193.96 284.984 174.849 248.338 174.849 211.758 c 256
 174.849 175.293 193.839 138.893 232 129 c 257
 232 -1 l 257
286 -1 m 257
 286 129 l 257
 324.161 138.893 343.151 175.293 343.151 211.758 c 256
 343.151 248.338 324.04 284.984 286 295 c 257
 286 425 l 257
 410 425 475 329 475 211 c 256
 475 86 387 -1 286 -1 c 257
344.963 521.818 m 257
 334.577 559.335 300.335 570 286 570 c 257
 286 700 l 257
 357.086 700 421.332 653.698 451.258 593.536 c 257
 344.963 521.818 l 257
EndSplineSet
EndChar

StartChar: slash
Encoding: 47 47 268
GlifName: slash
Width: 401
VWidth: 0
GlyphClass: 2
Flags: W
LayerCount: 2
Back
Fore
SplineSet
50 -23 m 257
 225 716 l 257
 351 716 l 257
 177 -23 l 257
 50 -23 l 257
EndSplineSet
EndChar

StartChar: sterling
Encoding: 163 163 270
GlifName: sterling
Width: 460
VWidth: 0
GlyphClass: 2
Flags: W
LayerCount: 2
Back
Fore
SplineSet
20 288 m 257
 20 395 l 257
 76 395 l 257
 76 514 l 258
 76 617 131 705 261 705 c 256
 262 705 262 705 263 705 c 256
 291 705 315 700 336 691 c 256
 394 668 429 618 440 570 c 257
 341 520 l 257
 331 551 311 584 267 584 c 256
 235 584 209 568 209 517 c 258
 209 396 l 257
 348 396 l 257
 348 289 l 257
 208 289 l 257
 208 108 l 257
 432 108 l 257
 432 0 l 257
 76 0 l 257
 76 288 l 257
 20 288 l 257
EndSplineSet
EndChar

StartChar: summation
Encoding: 384 8721 271
GlifName: summation
Width: 676
VWidth: 0
GlyphClass: 2
Flags: W
LayerCount: 2
Back
Fore
SplineSet
312 560 m 257
 215 691 l 257
 215 700 l 257
 528 700 l 257
 528 560 l 257
 312 560 l 257
30 -140.134 m 257
 30 9 l 257
 250 311 l 257
 30 608 l 257
 30 700 l 257
 140 700 l 257
 429 307 l 257
 207.109 9.86621 l 257
 528 9.86621 l 257
 528 -140.134 l 257
 30 -140.134 l 257
EndSplineSet
EndChar

StartChar: t
Encoding: 116 116 272
GlifName: t
Width: 324
VWidth: 0
GlyphClass: 2
Flags: W
LayerCount: 2
Back
Fore
SplineSet
14 441 m 257
 14 570 l 257
 84 570 l 257
 83.7998 716 l 257
 218 716 l 257
 218 570 l 257
 284 570 l 257
 284 440.2 l 257
 218 440.2 l 257
 218.301 174.9 l 258
 218.318 159.5 223.801 137.5 254.601 137.5 c 258
 284.301 137.5 l 257
 314 0 l 257
 253.5 0 l 258
 119.301 0 84.1452 72.5996 84.1006 184.8 c 258
 84 441 l 257
 14 441 l 257
EndSplineSet
EndChar

StartChar: thorn
Encoding: 386 254 274
GlifName: thorn
Width: 422
VWidth: 0
GlyphClass: 2
Flags: W
LayerCount: 2
Back
Fore
SplineSet
30 -182 m 257
 30 700 l 257
 155 700 l 257
 155 -182 l 257
 30 -182 l 257
196 401 m 257
 196 519 l 257
 228 519 l 258
 335 519 396 434 396 378 c 258
 396 139 l 258
 396 86 345 0 232 0 c 258
 203 0 l 257
 203 118 l 257
 234 118 l 258
 271 119 276 134 276 143 c 258
 276 375 l 258
 276 388 258 401 228 401 c 258
 196 401 l 257
EndSplineSet
EndChar

StartChar: three
Encoding: 51 51 275
GlifName: three
Width: 502
VWidth: 0
GlyphClass: 2
Flags: W
LayerCount: 2
Back
Fore
SplineSet
268 0 m 257
 268 130 l 257
 301.028 133 342 149.691 342 200 c 256
 342 248.216 321 285 213 285 c 257
 213 415 l 257
 320.979 415 342 452.784 342 500 c 256
 342 550.309 301.028 567 268 570 c 257
 268 700 l 257
 349.454 700 472 649.18 472 501 c 256
 472 416 433 369 405 350 c 257
 433 331 472 284 472 199 c 256
 472 50.8203 349.454 0 268 0 c 257
30 179 m 257
 151 202 l 257
 151 145 196 130 213 130 c 257
 213 0 l 257
 115 0 30 88 30 179 c 257
30 521 m 257
 30 612 115 700 213 700 c 257
 213 570 l 257
 196 568 151 555 151 498 c 257
 30 521 l 257
EndSplineSet
EndChar

StartChar: threequarters
Encoding: 387 190 276
GlifName: threequarters
Width: 575
VWidth: 0
GlyphClass: 2
Flags: W
LayerCount: 2
Back
Fore
SplineSet
163.5 351 m 257
 163.5 428 l 257
 181.345 428.281 191.158 442.509 191.158 457.264 c 256
 191.158 473.321 179.536 490 154 490 c 258
 136 490 l 257
 136 561 l 257
 154 561 l 258
 179.461 561 191.084 577.721 191.084 593.796 c 256
 191.084 608.529 181.321 622.72 163.5 623 c 257
 163.5 700 l 257
 204.227 700 265.5 666.59 265.5 600.5 c 256
 265.5 558 246 534.5 232 526 c 257
 246 516.5 265.5 493 265.5 450.5 c 256
 265.5 384.41 204.227 351 163.5 351 c 257
439 0 m 257
 439 350.5 l 257
 519 350.5 l 257
 519 131 l 257
 546 131 l 257
 546 61 l 257
 519 61 l 257
 519 0 l 257
 439 0 l 257
302.5 61 m 257
 302.5 131 l 257
 410.5 319 l 257
 410.5 175 l 257
 387.5 131 l 257
 410.5 131 l 257
 410.5 61 l 257
 302.5 61 l 257
30.75 452 m 257
 101.75 465 l 257
 101.75 436.5 124.5 428 136 427 c 257
 136 350 l 257
 87 350 30.75 391.5 30.75 452 c 257
30.75 598 m 257
 30.75 658.5 87 700 136 700 c 257
 136 623 l 257
 124.5 622 101.75 613.5 101.75 585 c 257
 30.75 598 l 257
67 0 m 257
 499 700 l 257
 575 700 l 257
 150 0 l 257
 67 0 l 257
EndSplineSet
EndChar

StartChar: threesuperior
Encoding: 179 179 277
GlifName: uni00B_3
Width: 232
VWidth: 0
GlyphClass: 2
Flags: W
LayerCount: 2
Back
Fore
SplineSet
121.7 386.675 m 257
 121.7 445.175 l 257
 136.562 446.525 155 454.036 155 476.675 c 256
 155 498.372 145.55 514.925 96.9502 514.925 c 257
 96.9502 573.425 l 257
 145.541 573.425 155 590.428 155 611.675 c 256
 155 634.314 136.562 641.825 121.7 643.175 c 257
 121.7 701.675 l 257
 158.354 701.675 213.5 678.806 213.5 612.125 c 256
 213.5 573.875 195.95 552.725 183.35 544.175 c 257
 195.95 535.625 213.5 514.475 213.5 476.225 c 256
 213.5 409.544 158.354 386.675 121.7 386.675 c 257
14.5996 467.225 m 257
 69.0498 477.575 l 257
 69.0498 451.925 89.2998 445.175 96.9502 445.175 c 257
 96.9502 386.675 l 257
 52.8496 386.675 14.5996 426.275 14.5996 467.225 c 257
14.5996 621.125 m 257
 14.5996 662.075 52.8496 701.675 96.9502 701.675 c 257
 96.9502 643.175 l 257
 89.2998 642.275 69.0498 636.425 69.0498 610.775 c 257
 14.5996 621.125 l 257
EndSplineSet
EndChar

StartChar: tilde
Encoding: 388 732 278
GlifName: tilde
Width: 333
VWidth: 0
GlyphClass: 2
Flags: W
LayerCount: 2
Back
Fore
SplineSet
26 104 m 257
 26 206 l 257
 54 222 77 228 96 228 c 256
 147 228 176 187 227 187 c 256
 249 187 274 195 307 215 c 257
 307 114 l 257
 273 93 246 86 223 86 c 256
 170 86 140 126 92 126 c 256
 74 126 52 120 26 104 c 257
EndSplineSet
EndChar

StartChar: trademark
Encoding: 389 8482 279
GlifName: T_radeM_arkS_ign
Width: 403
VWidth: 0
GlyphClass: 2
Flags: W
LayerCount: 2
Back
Fore
SplineSet
26 653 m 257
 26 700 l 257
 165 700 l 257
 165 653 l 257
 120 653 l 257
 120 484 l 257
 72 484 l 257
 72 653 l 257
 26 653 l 257
188 484 m 257
 188 627 l 257
 191 627 l 257
 236 519 l 257
 236 484 l 257
 188 484 l 257
188 669 m 257
 188 700 l 257
 225 700 l 257
 281 564 l 257
 313 636 l 257
 317 636 l 257
 317 529 l 257
 298 484 l 257
 265 484 l 257
 188 669 l 257
330 484 m 257
 330 700 l 257
 377 700 l 257
 377 484 l 257
 330 484 l 257
EndSplineSet
EndChar

StartChar: two
Encoding: 50 50 280
GlifName: two
Width: 495
VWidth: 0
GlyphClass: 2
Flags: W
LayerCount: 2
Back
Fore
SplineSet
30 521 m 257
 30 612 115 700 213 700 c 257
 213 570 l 257
 196 570 151 555 151 498 c 257
 30 521 l 257
51 0 m 257
 51 138 l 257
 455 138 l 257
 455 0 l 257
 51 0 l 257
51 190 m 257
 51 277.827 154 332 215 379 c 256
 267.145 419.177 335 456.5 335 503 c 256
 335 555 294 570 268 570 c 257
 268 700 l 257
 406.495 700 465 604.615 465 504 c 256
 465 423.125 432.036 377.158 343 313 c 256
 275 264 209.401 234.983 209 190 c 257
 51 190 l 257
EndSplineSet
EndChar

StartChar: twosuperior
Encoding: 178 178 281
GlifName: uni00B_2
Width: 223
VWidth: 0
GlyphClass: 2
Flags: W
LayerCount: 2
Back
Fore
SplineSet
7.97461 623.95 m 257
 7.97461 664.9 46.2246 704.5 90.3252 704.5 c 257
 90.3252 646 l 257
 82.6748 646 62.4248 639.25 62.4248 613.6 c 257
 7.97461 623.95 l 257
17.4248 389.5 m 257
 17.4248 451.6 l 257
 199.225 451.6 l 257
 199.225 389.5 l 257
 17.4248 389.5 l 257
17.4248 475 m 257
 17.4248 514.522 63.7754 538.9 91.2246 560.05 c 256
 114.69 578.13 145.225 594.925 145.225 615.85 c 256
 145.225 639.25 126.775 646 115.075 646 c 257
 115.075 704.5 l 257
 177.397 704.5 203.725 661.577 203.725 616.3 c 256
 203.725 579.906 188.892 559.221 148.825 530.35 c 256
 118.225 508.3 88.7051 495.242 88.5254 475 c 257
 17.4248 475 l 257
EndSplineSet
EndChar

StartChar: u
Encoding: 117 117 282
GlifName: u
Width: 487
VWidth: 0
GlyphClass: 2
Flags: W
LayerCount: 2
Back
Fore
SplineSet
37.5996 151.04 m 258
 37.5996 569.74 l 257
 174 569.74 l 257
 174 166.54 l 258
 174 147.753 184.214 127.94 220.2 127.94 c 257
 220.2 -5.16016 l 257
 99.2921 -5.16016 37.5996 94.8031 37.5996 151.04 c 258
266.399 -5.16016 m 257
 266.399 127.94 l 257
 302.321 127.94 312.6 149.135 312.6 166.54 c 258
 312.6 569.74 l 257
 449 569.74 l 257
 449 151.04 l 258
 449 98.0997 387.31 -5.16016 266.399 -5.16016 c 257
EndSplineSet
EndChar

StartChar: underscore
Encoding: 95 95 289
GlifName: underscore
Width: 510
VWidth: 0
GlyphClass: 2
Flags: W
LayerCount: 2
Back
Fore
SplineSet
30 -98 m 257
 480 -98 l 257
 480 -205 l 257
 30 -205 l 257
 30 -98 l 257
EndSplineSet
EndChar

StartChar: uni00B5
Encoding: 181 181 291
GlifName: mu
Width: 503
VWidth: 0
GlyphClass: 2
Flags: W
LayerCount: 2
Back
Fore
SplineSet
48 0 m 257
 48 698 l 257
 172 698 l 257
 172 326 l 258
 172 313.378 181.285 300 214 300 c 257
 214 179 l 257
 198.644 179 185.638 179.591 172 183 c 257
 172 0 l 257
 48 0 l 257
256 179 m 257
 256 300 l 257
 288.656 300 298 313.36 298 326 c 258
 298 698 l 257
 298 700 l 257
 422 700 l 257
 422 698 l 257
 422 328 l 258
 422 319.081 428.285 302 464 302 c 257
 464 181 l 257
 420.76 181 387.618 192.77 361 213 c 257
 333.356 191.736 300.347 179 256 179 c 257
EndSplineSet
EndChar

StartChar: uni02C9
Encoding: 408 713 310
GlifName: uni02C_9
Width: 416
VWidth: 0
GlyphClass: 2
Flags: W
LayerCount: 2
Back
Fore
SplineSet
50 514 m 257
 50 596 l 257
 366 596 l 257
 366 514 l 257
 50 514 l 257
EndSplineSet
EndChar

StartChar: uni2113
Encoding: 409 8467 311
GlifName: uni2113
Width: 196
VWidth: 0
GlyphClass: 2
Flags: W
LayerCount: 2
Back
Fore
SplineSet
39 191 m 258
 39 698 l 257
 170 698 l 257
 170 191 l 257
 171 145 221 135 226 135 c 257
 226 -7 l 257
 166 -7 39 47 39 191 c 258
EndSplineSet
EndChar

StartChar: uni2126
Encoding: 410 8486 312
GlifName: uni2126
Width: 473
VWidth: 0
GlyphClass: 2
Flags: W
LayerCount: 2
Back
Fore
SplineSet
30 0 m 257
 30 65 l 257
 76.5938 65 l 257
 55.2822 92.9883 45 124.047 45 144 c 258
 45 379 l 258
 45 428.752 95.5186 519 209 519 c 257
 209 401 l 257
 173.093 401 165 380.836 165 366 c 258
 165 157 l 258
 165 134.442 173.637 120 209 120 c 257
 209 0 l 257
 30 0 l 257
264 0 m 257
 264 120 l 257
 299.363 120 308 134.442 308 157 c 258
 308 366 l 258
 308 380.836 299.907 401 264 401 c 257
 264 519 l 257
 377.481 519 428 428.752 428 379 c 258
 428 144 l 258
 428 124.047 417.718 92.9883 396.406 65 c 257
 443 65 l 257
 443 0 l 257
 264 0 l 257
EndSplineSet
EndChar

StartChar: uni2206
Encoding: 411 8710 313
GlifName: uni2206
Width: 646
VWidth: 0
GlyphClass: 2
Flags: W
LayerCount: 2
Back
Fore
SplineSet
80 0 m 257
 230 576 l 257
 239.622 576 l 257
 295.288 370.036 l 257
 233 125.125 l 257
 413 125.125 l 257
 263 700 l 257
 385 700 l 257
 566 0 l 257
 80 0 l 257
EndSplineSet
EndChar

StartChar: uni5713
Encoding: 414 22291 316
GlifName: H_K_D_
Width: 843
VWidth: 0
GlyphClass: 2
Flags: W
LayerCount: 2
Back
Fore
SplineSet
50 488 m 257
 50 698 l 257
 92 698 l 257
 92 614 l 257
 101 614 l 257
 101 573 l 257
 92 573 l 257
 92 488 l 257
 50 488 l 257
117 573 m 257
 117 614 l 257
 126 614 l 257
 126 698 l 257
 169 698 l 257
 169 488 l 257
 126 488 l 257
 126 573 l 257
 117 573 l 257
198 488 m 257
 198 698 l 257
 241 698 l 257
 241 488 l 257
 198 488 l 257
257 611 m 257
 283 698 l 257
 325 698 l 257
 299 611 l 257
 326 488 l 257
 284 488 l 257
 257 611 l 257
EndSplineSet
Refer: 141 36 N 1 0 0 1 322 0 2
EndChar

StartChar: v
Encoding: 118 118 319
GlifName: v
Width: 443
VWidth: 0
GlyphClass: 2
Flags: W
LayerCount: 2
Back
Fore
SplineSet
7 570 m 257
 156 570 l 257
 301.6 137.99 l 257
 257.3 -0.00976562 l 257
 181.399 -0.00976562 l 257
 7 570 l 257
245.2 433.39 m 257
 287 570 l 257
 436 570 l 257
 328.8 228.79 l 257
 315.6 228.79 l 257
 245.2 433.39 l 257
EndSplineSet
EndChar

StartChar: w
Encoding: 119 119 320
GlifName: w
Width: 723
VWidth: 0
GlyphClass: 2
Flags: W
LayerCount: 2
Back
Fore
SplineSet
7 570 m 257
 156 570 l 257
 301.6 137.99 l 257
 257.3 -0.00976562 l 257
 181.399 -0.00976562 l 257
 7 570 l 257
245.2 433.39 m 257
 287 570 l 257
 436 570 l 257
 328.8 228.79 l 257
 315.6 228.79 l 257
 245.2 433.39 l 257
287 570 m 257
 436 570 l 257
 581.6 137.99 l 257
 537.3 -0.00976562 l 257
 461.399 -0.00976562 l 257
 287 570 l 257
525.2 433.39 m 257
 567 570 l 257
 716 570 l 257
 608.8 228.79 l 257
 595.6 228.79 l 257
 525.2 433.39 l 257
EndSplineSet
EndChar

StartChar: x
Encoding: 120 120 321
GlifName: x
Width: 416
VWidth: 0
GlyphClass: 2
Flags: W
LayerCount: 2
Back
Fore
SplineSet
7.59961 -0.00976562 m 257
 133 288.19 l 257
 10 570 l 257
 147.5 570 l 257
 207.8 438.89 l 257
 266.4 570 l 257
 405 570 l 257
 283.7 288.19 l 257
 408 -0.00976562 l 257
 270.5 -0.00976562 l 257
 207.8 138.59 l 257
 145.1 -0.00976562 l 257
 7.59961 -0.00976562 l 257
EndSplineSet
EndChar

StartChar: y
Encoding: 121 121 322
GlifName: y
Width: 429
VWidth: 0
GlyphClass: 2
Flags: W
LayerCount: 2
Back
Fore
SplineSet
6.90039 569.9 m 257
 151 570 l 257
 284.1 125.601 l 257
 175.4 -199.699 l 257
 36.7998 -199.699 l 257
 136.7 127.801 l 257
 6.90039 569.9 l 257
241.2 435.801 m 257
 283 570 l 257
 427.1 569.9 l 257
 313.8 232.301 l 257
 300.6 232.301 l 257
 241.2 435.801 l 257
EndSplineSet
EndChar

StartChar: yen
Encoding: 419 165 325
GlifName: yen
Width: 449
VWidth: 0
GlyphClass: 2
Flags: W
LayerCount: 2
Back
Fore
SplineSet
16 299 m 257
 441 299 l 257
 441 239 l 257
 16 239 l 257
 16 299 l 257
16 409 m 257
 441 409 l 257
 441 349 l 257
 16 349 l 257
 16 409 l 257
165 0 m 257
 165 238 l 257
 35 698 l 257
 172 698 l 257
 235 485 l 257
 295 698 l 257
 432 698 l 257
 302 236 l 257
 302 0 l 257
 165 0 l 257
EndSplineSet
EndChar

StartChar: z
Encoding: 122 122 326
GlifName: z
Width: 386
VWidth: 0
GlyphClass: 2
Flags: W
LayerCount: 2
Back
Fore
SplineSet
30.4004 0.0898438 m 257
 29.7002 130.89 l 257
 203.101 440 l 257
 30.4004 440 l 257
 30.4004 570 l 257
 356 570 l 257
 356.101 440 l 257
 187.7 130.89 l 257
 356 131 l 257
 356 0.0898438 l 257
 30.4004 0.0898438 l 257
EndSplineSet
EndChar

StartChar: zero
Encoding: 48 48 330
GlifName: zero
Width: 499
VWidth: 0
GlyphClass: 2
Flags: W
LayerCount: 2
Back
Fore
SplineSet
222 0 m 257
 136 0 30 57 30 350 c 256
 30 643 136 700 222 700 c 257
 222 566 l 257
 167 553 165 452 165 361 c 258
 165 339 l 258
 165 248 167 147 222 134 c 257
 222 0 l 257
277 0 m 257
 277 134 l 257
 332 147 334 248 334 339 c 258
 334 361 l 258
 334 452 332 553 277 566 c 257
 277 700 l 257
 363 700 469 643 469 350 c 256
 469 57 363 0 277 0 c 257
EndSplineSet
EndChar
